<?xml version="1.0" standalone="no"?>
<!DOCTYPE svg PUBLIC "-//W3C//DTD SVG 1.1//EN" "http://www.w3.org/Graphics/SVG/1.1/DTD/svg11.dtd" >
<svg xmlns="http://www.w3.org/2000/svg" xmlns:xlink="http://www.w3.org/1999/xlink" version="1.1">
<metadata>
Created by FontForge 20170731 at Tue May  1 05:35:43 2007
 By Aleksey,,,
Parisine (c)TM 1995-1999, Created by Jean-Francois Porchez. Distribued exclusively by Porchez Typofonderie. All rights reserved. Signage typeface of the RATP, France.
</metadata>
<defs>
<font id="Parisine-Regular" horiz-adv-x="560" >
  <font-face 
    font-family="Parisine"
    font-weight="500"
    font-stretch="normal"
    units-per-em="1000"
    panose-1="0 0 0 0 0 0 0 0 0 0"
    ascent="800"
    descent="-200"
    x-height="531"
    cap-height="706"
    bbox="-109 -219 1130 929"
    underline-thickness="20"
    underline-position="-173"
    unicode-range="U+0020-FB02"
  />
<missing-glyph horiz-adv-x="500" 
 />
    <glyph glyph-name=".notdef" horiz-adv-x="500" 
 />
    <glyph glyph-name=".null" horiz-adv-x="0" 
 />
    <glyph glyph-name="nonmarkingreturn" horiz-adv-x="333" 
 />
    <glyph glyph-name="space" unicode=" " horiz-adv-x="280" 
 />
    <glyph glyph-name="exclam" unicode="!" horiz-adv-x="280" 
d="M193 740q0 -99 -4.5 -239t-8.5 -231l-4 -90h-70q-17 337 -17 560h104zM203 57q0 -28 -17 -46t-45 -18t-45.5 18t-17.5 46q0 27 17 45t45 18t45.5 -18t17.5 -45z" />
    <glyph glyph-name="quotedbl" unicode="&#x22;" horiz-adv-x="443" 
d="M358 740l-11 -258h-70l-12 258h93zM185 740l-12 -258h-70l-12 258h94z" />
    <glyph glyph-name="numbersign" unicode="#" 
d="M563 497l-17 -68h-105l-46 -157h107l-17 -68h-106l-56 -204h-75l57 204h-126l-56 -204h-77l59 204h-108l18 68h106l45 157h-108l17 68h107l57 209h76l-59 -209h127l56 209h76l-59 -209h107zM366 429h-126l-45 -157h126z" />
    <glyph glyph-name="dollar" unicode="$" 
d="M500 206q0 -89 -54 -140t-138 -63v-118h-61v115q-119 0 -201 56l45 85q68 -53 156 -53v227q-44 18 -70.5 32.5t-55.5 37.5t-42.5 55.5t-13.5 74.5q0 75 52 127.5t136 63.5v110h61v-110q108 0 179 -51l-47 -83q-55 46 -132 49v-212q36 -15 58 -25.5t49.5 -28.5t42.5 -37
t25.5 -48t10.5 -64zM253 429l1 193q-45 -8 -69 -34.5t-24 -59.5q0 -39 23.5 -60t68.5 -39zM403 190q0 42 -24.5 64.5t-70.5 40.5v-205q41 9 68 34t27 66z" />
    <glyph glyph-name="percent" unicode="%" horiz-adv-x="842" 
d="M816 213q0 -39 -7 -75.5t-23.5 -73t-49.5 -58.5t-78 -22t-78 22t-49 58t-23 72.5t-7 76.5q0 39 7.5 76t23.5 73.5t49 58.5t78 22q47 0 80 -21.5t48.5 -58t22 -73t6.5 -77.5zM669 706l-415 -706h-82l416 706h81zM341 494q0 -39 -7 -75.5t-23.5 -73t-49.5 -58.5t-78 -22
q-47 0 -80 21.5t-48.5 58t-22 72.5t-6.5 77q0 39 7 76t23.5 73t49.5 58t78 22t78 -22t49 -58.5t23 -73t7 -75.5zM738 213q0 79 -17 123.5t-63 44.5q-79 0 -79 -168t79 -168q80 0 80 168zM263 494q0 168 -79 168q-80 0 -80 -168q0 -79 17 -123.5t63 -44.5q79 0 79 168z" />
    <glyph glyph-name="ampersand" unicode="&#x26;" horiz-adv-x="704" 
d="M700 0h-129q-7 5 -38.5 32.5t-38.5 32.5q-91 -80 -210 -80q-103 0 -170.5 55.5t-67.5 153.5q0 128 134 193q-24 27 -36.5 45t-24 50t-11.5 68q0 78 57 127.5t136 49.5q75 0 128.5 -42.5t53.5 -122.5q0 -37 -14 -68t-42 -54.5t-53.5 -39t-63.5 -33.5q67 -71 180 -173
q37 59 37 145q0 23 -5 45l89 5q5 -25 5 -50q0 -117 -63 -209q75 -68 147 -130zM394 566q0 37 -27 62t-67 25q-46 0 -73 -28t-27 -69q0 -39 17 -69t49 -63q61 30 94.5 62t33.5 80zM432 126q-112 100 -206 201q-37 -16 -61 -48.5t-24 -77.5q0 -57 43 -93t101 -36q88 0 147 54z
" />
    <glyph glyph-name="quotesingle" unicode="'" horiz-adv-x="280" 
d="M187 740l-12 -258h-70l-12 258h94z" />
    <glyph glyph-name="parenleft" unicode="(" horiz-adv-x="311" 
d="M285 -140h-82q-161 187 -161 439q0 254 161 441h82q-76 -98 -115 -197t-39 -241q0 -143 39.5 -243.5t114.5 -198.5z" />
    <glyph glyph-name="parenright" unicode=")" horiz-adv-x="311" 
d="M269 299q0 -252 -161 -439h-82q75 98 114.5 198.5t39.5 243.5q0 142 -39 241t-115 197h82q161 -187 161 -441z" />
    <glyph glyph-name="asterisk" unicode="*" horiz-adv-x="429" 
d="M401 577l-134 -40l87 -119l-52 -39l-88 118l-88 -117l-53 39l89 118l-134 41l19 63l133 -43v142h69v-142l133 42z" />
    <glyph glyph-name="plus" unicode="+" 
d="M524 280h-200v-198h-88v198h-200v93h200v198h87v-198h201v-93z" />
    <glyph glyph-name="comma" unicode="," horiz-adv-x="280" 
d="M203 62q0 -114 -90 -202h-84q83 102 83 185q0 36 -17 78h96q12 -28 12 -61z" />
    <glyph glyph-name="hyphen" unicode="-" horiz-adv-x="280" 
d="M265 230h-250v98h250v-98z" />
    <glyph glyph-name="period" unicode="." horiz-adv-x="280" 
d="M203 57q0 -27 -17 -45t-45 -18t-45.5 18t-17.5 45q0 28 17 45.5t45 17.5t45.5 -17.5t17.5 -45.5z" />
    <glyph glyph-name="slash" unicode="/" horiz-adv-x="315" 
d="M318 706l-240 -706h-81l239 706h82z" />
    <glyph glyph-name="zero" unicode="0" 
d="M523 354q0 -51 -6 -98.5t-22.5 -99t-43 -89t-71 -62t-101.5 -24.5q-71 0 -121.5 35.5t-75 94.5t-35 118.5t-10.5 124.5q0 104 25 186t81.5 134.5t137.5 52.5q59 0 103.5 -24.5t70 -61.5t41.5 -88.5t21.5 -99t5.5 -99.5zM418 354q0 284 -138 284q-43 0 -73.5 -31
t-43 -80.5t-17.5 -90.5t-5 -82t5 -82t18 -90.5t43 -80.5t73 -31q34 0 61.5 25.5t43.5 67.5t24.5 91t8.5 100z" />
    <glyph glyph-name="one" unicode="1" 
d="M359 0h-103v594q-48 -36 -163 -91l-34 81q114 48 214 122h86v-706z" />
    <glyph glyph-name="two" unicode="2" 
d="M492 0h-420v70q7 61 53.5 119t132.5 134q34 30 55 52.5t40 59t19 72.5q0 58 -38 93t-93 35q-80 0 -136 -76l-63 70q87 96 217 96q90 0 154 -54t64 -153q0 -42 -11 -76.5t-39.5 -69.5t-46 -51.5t-61.5 -56.5q-37 -34 -58.5 -54.5t-47.5 -56.5t-30 -64h309v-89z" />
    <glyph glyph-name="three" unicode="3" 
d="M492 209q0 -97 -73 -161.5t-185 -64.5q-120 0 -194 66l55 79q58 -58 134 -58q71 0 115 38.5t44 99.5q0 64 -45.5 94.5t-114.5 30.5h-71v88h72q59 0 98.5 30t39.5 80q0 46 -35 76.5t-93 30.5q-78 0 -132 -62l-52 75q82 74 203 74q94 0 152.5 -51t58.5 -128
q0 -55 -31.5 -97.5t-87.5 -62.5v-2q64 -12 103 -58t39 -117z" />
    <glyph glyph-name="four" unicode="4" 
d="M541 162h-100v-162h-97v162h-321v97l294 447h124v-461h100v-83zM344 245v362h-2q-17 -43 -49 -90l-183 -272h234z" />
    <glyph glyph-name="five" unicode="5" 
d="M494 222q0 -102 -69 -170.5t-180 -68.5q-120 0 -197 65l56 79q60 -57 137 -57q63 0 106 37.5t43 104.5q0 65 -51 106.5t-144 42.5h-33.5h-37.5h-27l26 345h346v-89h-264l-13 -168q4 0 14.5 -0.5t15.5 -0.5q127 -4 199.5 -66.5t72.5 -159.5z" />
    <glyph glyph-name="six" unicode="6" 
d="M528 219q0 -102 -64.5 -169t-166.5 -67q-67 0 -116 24.5t-76.5 69.5t-40.5 99.5t-13 122.5q0 87 19 162t57 135t101.5 94.5t146.5 34.5q62 0 107 -15l-24 -89q-44 18 -92 18q-99 0 -154 -77.5t-60 -195.5q66 62 164 62q93 0 152.5 -56.5t59.5 -152.5zM430 208
q0 61 -38.5 99t-102.5 38q-46 0 -80 -17.5t-50 -39.5q-8 -12 -8 -51q0 -69 36.5 -120t106.5 -51q61 0 98.5 41.5t37.5 100.5z" />
    <glyph glyph-name="seven" unicode="7" 
d="M525 620q-144 -258 -206 -395.5t-62 -224.5h-109q0 63 19.5 124t65.5 146l188 347h-369v89h473v-86z" />
    <glyph glyph-name="eight" unicode="8" 
d="M513 192q0 -96 -66.5 -153.5t-169.5 -57.5q-102 0 -166 55.5t-64 139.5q0 126 142 197q-58 33 -90 72t-32 94q0 84 63.5 136t152.5 52t149.5 -45t60.5 -128q0 -104 -123 -172q143 -65 143 -190zM399 548q1 46 -31.5 73.5t-84.5 27.5q-58 0 -89 -28.5t-31 -71.5
q0 -78 128 -132q108 49 108 131zM412 184q0 51 -37.5 86.5t-105.5 65.5q-53 -22 -88.5 -61t-35.5 -89q0 -54 37.5 -89.5t95.5 -35.5q61 0 97.5 34.5t36.5 88.5z" />
    <glyph glyph-name="nine" unicode="9" 
d="M509 407q0 -87 -19 -162t-57 -135t-101.5 -94.5t-146.5 -34.5q-63 0 -108 15l25 89q42 -18 92 -18q98 0 153.5 77.5t60.5 195.5q-68 -62 -164 -62q-93 0 -153 56.5t-60 152.5q0 101 65 168.5t167 67.5q129 0 187.5 -87t58.5 -229zM409 469q0 69 -37 120t-107 51
q-61 0 -98.5 -41.5t-37.5 -100.5q0 -61 38.5 -99t102.5 -38q46 0 80.5 17.5t49.5 39.5q9 13 9 51z" />
    <glyph glyph-name="colon" unicode=":" horiz-adv-x="280" 
d="M203 57q0 -27 -17 -45t-45 -18t-45.5 18t-17.5 45q0 28 17 45.5t45 17.5t45.5 -17.5t17.5 -45.5zM202 461q0 -27 -17 -45t-45 -18t-45.5 18t-17.5 45q0 28 17.5 45.5t45.5 17.5t45 -17.5t17 -45.5z" />
    <glyph glyph-name="semicolon" unicode=";" horiz-adv-x="280" 
d="M203 62q0 -112 -90 -202h-84q82 103 82 185q0 39 -16 78h95q13 -30 13 -61zM202 461q0 -28 -16.5 -45.5t-44.5 -17.5t-45.5 18t-17.5 45q0 28 17.5 45.5t45.5 17.5t44.5 -17.5t16.5 -45.5z" />
    <glyph glyph-name="less" unicode="&#x3c;" 
d="M525 80l-490 200v92l490 201v-107l-372 -140l372 -139v-107z" />
    <glyph glyph-name="equal" unicode="=" 
d="M525 406h-490v93h490v-93zM525 154h-490v93h490v-93z" />
    <glyph glyph-name="greater" unicode="&#x3e;" 
d="M525 280l-490 -200v107l372 139l-372 140v107l490 -201v-92z" />
    <glyph glyph-name="question" unicode="?" horiz-adv-x="497" 
d="M445 559q0 -77 -69 -153q-27 -29 -98 -89q0 -8 -3 -62.5t-4 -74.5h-70l-10 166q78 65 89 76q60 60 60 123q0 50 -33 85t-87 35q-75 0 -132 -68l-54 72q82 80 206 80q85 0 145 -51.5t60 -138.5zM297 57q0 -28 -17 -46t-45 -18t-45 18t-17 46q0 27 17 45t45 18t45 -18
t17 -45z" />
    <glyph glyph-name="at" unicode="@" horiz-adv-x="746" 
d="M710 309q0 -114 -44.5 -178t-122.5 -64q-75 0 -82 56q-46 -63 -132 -63q-51 0 -86 32t-35 82q0 132 205 132q26 0 33 2t7 10v31q0 36 -22.5 58t-69.5 22q-64 0 -109 -39l-27 61q65 45 151 45q73 0 116.5 -36t43.5 -107v-195q0 -26 22 -26q37 0 60.5 38t23.5 122
q0 129 -69.5 209t-196.5 80q-69 0 -122.5 -25.5t-84.5 -70t-46.5 -98t-15.5 -114.5q0 -147 76 -229t222 -82q133 0 220 67l27 -60q-48 -34 -116 -51.5t-135 -17.5q-176 0 -271 99t-95 274q0 92 28.5 164.5t76.5 116.5t109 67t129 23q150 0 241 -92t91 -243zM453 198v57
q-6 0 -18 0.5t-19 0.5q-126 0 -126 -75q0 -26 19 -43.5t49 -17.5q50 0 81 41q14 18 14 37z" />
    <glyph glyph-name="A" unicode="A" horiz-adv-x="635" 
d="M627 0h-113l-62 168h-279l-60 -168h-105l250 708h115zM425 257l-77 218q-26 77 -34 125h-3q-8 -49 -35 -126l-75 -217h224z" />
    <glyph glyph-name="B" unicode="B" horiz-adv-x="637" 
d="M584 218q0 -63 -25 -108t-69 -68t-90.5 -32.5t-101.5 -9.5h-209v706h218q254 0 254 -175q0 -52 -35 -91.5t-83 -50.5v-2q57 -8 99 -52.5t42 -116.5zM457 518q0 34 -16 55.5t-46 30t-52.5 11t-55.5 2.5h-92v-199h110q152 0 152 100zM475 220q0 112 -167 112h-113v-243h99
q181 0 181 131z" />
    <glyph glyph-name="C" unicode="C" horiz-adv-x="625" 
d="M586 47q-82 -64 -208 -64q-156 0 -245 103t-89 259q0 73 20 139.5t59.5 121t105 87t148.5 32.5q132 0 210 -58l-50 -93q-68 53 -155 53q-59 0 -104.5 -25t-71.5 -66.5t-39 -89t-13 -98.5q0 -116 65.5 -191.5t170.5 -75.5q91 0 155 54z" />
    <glyph glyph-name="D" unicode="D" horiz-adv-x="732" 
d="M688 369q0 -369 -422 -369h-177v706h182q42 0 77 -2.5t79.5 -10.5t79.5 -22t70 -39.5t58.5 -60t38 -86.5t14.5 -116zM579 362q0 251 -294 251h-90v-521h92q292 0 292 270z" />
    <glyph glyph-name="E" unicode="E" horiz-adv-x="563" 
d="M500 0h-411v706h396v-95h-290v-191h280v-92h-280v-233h305v-95z" />
    <glyph glyph-name="F" unicode="F" horiz-adv-x="558" 
d="M499 610h-304v-205h294v-94h-294v-311h-106v706h410v-96z" />
    <glyph glyph-name="G" unicode="G" horiz-adv-x="692" 
d="M612 24q-107 -41 -228 -41q-165 0 -252.5 100t-87.5 266q0 101 37 184.5t117 137.5t192 54q137 0 224 -62l-52 -89q-73 57 -165 57q-118 0 -181 -80t-63 -201q0 -126 63 -201t174 -75q64 0 119 16v156h-146v96h249v-318z" />
    <glyph glyph-name="H" unicode="H" horiz-adv-x="734" 
d="M646 0h-107v327h-344v-327h-106v706h106v-284h344v284h107v-706z" />
    <glyph glyph-name="I" unicode="I" horiz-adv-x="292" 
d="M199 0h-106v706h106v-706z" />
    <glyph glyph-name="J" unicode="J" horiz-adv-x="375" 
d="M285 250q0 -109 -60.5 -183.5t-184.5 -74.5q-21 0 -32 1l3 88q6 -1 18 -1q73 0 111 47t38 132v447h107v-456z" />
    <glyph glyph-name="K" unicode="K" horiz-adv-x="631" 
d="M615 0h-133l-215 323l-72 -80v-243h-106v706h106v-347l288 347h126l-266 -314z" />
    <glyph glyph-name="L" unicode="L" horiz-adv-x="525" 
d="M505 0h-416v706h106v-611h310v-95z" />
    <glyph glyph-name="M" unicode="M" horiz-adv-x="890" 
d="M801 0h-103l-16 442q-1 31 -1 105h-2q-8 -41 -35 -112l-167 -435h-79l-169 440q-26 69 -32 104h-2v-25.5v-39.5v-33l-13 -446h-93l22 706h120l177 -465q27 -69 35 -108h2q8 34 36 110l169 463h121z" />
    <glyph glyph-name="N" unicode="N" horiz-adv-x="745" 
d="M656 0h-98l-300 414q-50 69 -68 113h-2v-527h-99v706h100l288 -411q64 -93 78 -127h3v538h98v-706z" />
    <glyph glyph-name="O" unicode="O" horiz-adv-x="724" 
d="M680 354q0 -97 -28 -171.5t-75 -117t-102 -63.5t-114 -21q-146 0 -231.5 96t-85.5 277q0 97 28 171.5t75 117t102 63.5t114 21q146 0 231.5 -96t85.5 -277zM571 354q0 56 -11.5 104t-35.5 88t-65.5 63t-96.5 23q-56 0 -97.5 -23t-65 -62.5t-35 -88t-11.5 -104.5
t11.5 -104t35.5 -88t65.5 -63t96.5 -23q56 0 97.5 23t65 62.5t35 88t11.5 104.5z" />
    <glyph glyph-name="P" unicode="P" horiz-adv-x="592" 
d="M554 492q0 -231 -286 -231h-73v-261h-106v706h178q25 0 43 -0.5t50 -5t55.5 -12.5t51.5 -24t45.5 -38t29.5 -56.5t12 -77.5zM446 486q0 129 -174 129h-77v-263h74q177 0 177 134z" />
    <glyph glyph-name="Q" unicode="Q" horiz-adv-x="724" 
d="M680 353q0 -138 -54.5 -224t-142.5 -123q28 -36 68 -77.5t65 -61.5l-106 -25q-53 50 -115 141q-18 -2 -34 -2q-146 0 -231.5 96t-85.5 277q0 78 19 142t50 106t72.5 70.5t86 41t91.5 12.5q146 0 231.5 -96t85.5 -277zM571 353q0 76 -19.5 136t-68 100.5t-121.5 40.5
q-56 0 -97.5 -22.5t-65 -62t-35 -87.5t-11.5 -104q0 -76 19.5 -136.5t68.5 -101t121 -40.5q56 0 97.5 22.5t65 62.5t35 88t11.5 104z" />
    <glyph glyph-name="R" unicode="R" horiz-adv-x="640" 
d="M624 0h-130l-173 262q-23 36 -57 36h-69v-298h-106v706h186q41 0 73 -2.5t74 -14t70 -31.5t48 -58t20 -90q0 -78 -47.5 -124.5t-116.5 -58.5q92 -142 228 -327zM450 504q0 36 -16 59.5t-44.5 34t-54.5 14t-59 3.5h-81v-229h85q170 0 170 118z" />
    <glyph glyph-name="S" unicode="S" horiz-adv-x="534" 
d="M484 200q0 -108 -71.5 -162.5t-177.5 -54.5q-119 0 -194 58l48 88q68 -54 153 -54q58 0 98 28t40 82q0 44 -27.5 69t-78.5 46l-61 26q-74 31 -114 76t-40 120q0 88 64.5 145.5t165.5 57.5q113 0 185 -52l-50 -87q-59 49 -135 49q-63 0 -94.5 -30.5t-31.5 -71.5
q0 -40 26 -63.5t72 -43.5l61 -26q78 -33 120 -78t42 -122z" />
    <glyph glyph-name="T" unicode="T" horiz-adv-x="585" 
d="M575 611h-231v-611h-106v611h-228v95h565v-95z" />
    <glyph glyph-name="U" unicode="U" horiz-adv-x="730" 
d="M652 275q0 -292 -286 -292q-287 0 -287 292v431h106v-428q0 -200 182 -200q181 0 181 200v428h104v-431z" />
    <glyph glyph-name="V" unicode="V" horiz-adv-x="633" 
d="M623 706l-251 -708h-112l-250 708h114l142 -415q23 -68 52 -174h2q24 89 52 172l145 417h106z" />
    <glyph glyph-name="W" unicode="W" horiz-adv-x="860" 
d="M826 706l-146 -708h-113l-115 463q-17 71 -24 113h-2q-7 -49 -22 -112l-115 -464h-114l-141 708h108l82 -448q12 -63 18 -119h3q3 30 24 120l109 447h106l110 -430q22 -85 29 -138h3q6 47 23 138l78 430h99z" />
    <glyph glyph-name="X" unicode="X" horiz-adv-x="579" 
d="M565 0h-128l-150 278l-155 -278h-118l213 361l-199 345h126l139 -262l142 262h117l-200 -341z" />
    <glyph glyph-name="Y" unicode="Y" horiz-adv-x="568" 
d="M556 706l-213 -439v-267h-106v266l-225 440h124l157 -337l149 337h114z" />
    <glyph glyph-name="Z" unicode="Z" horiz-adv-x="575" 
d="M535 0h-494v87l365 524h-354v95h481v-85l-365 -526h367v-95z" />
    <glyph glyph-name="bracketleft" unicode="[" horiz-adv-x="311" 
d="M263 -140h-195v880h195v-68h-110v-744h110v-68z" />
    <glyph glyph-name="backslash" unicode="\" horiz-adv-x="315" 
d="M318 0h-81l-240 706h81z" />
    <glyph glyph-name="bracketright" unicode="]" horiz-adv-x="311" 
d="M243 -140h-195v68h111v744h-111v68h195v-880z" />
    <glyph glyph-name="asciicircum" unicode="^" 
d="M512 265h-101l-132 325l-131 -325h-100l189 441h86z" />
    <glyph glyph-name="underscore" unicode="_" 
d="M556 -200h-552v88h552v-88z" />
    <glyph glyph-name="grave" unicode="`" horiz-adv-x="539" 
d="M385 585h-77l-154 155h115z" />
    <glyph glyph-name="a" unicode="a" horiz-adv-x="523" 
d="M500 2q-35 -11 -66 -11q-65 0 -72 79q-66 -85 -162 -85q-66 0 -109.5 42.5t-43.5 106.5q0 171 262 171q30 0 38 2.5t8 13.5v48q0 43 -27.5 70.5t-83.5 27.5q-76 0 -129 -53l-45 72q76 61 195 61q76 0 129 -42t53 -136v-268q0 -34 23 -34q9 0 23 4zM354 169v68
q-8 0 -24.5 0.5t-25.5 0.5q-161 0 -161 -95q0 -35 24.5 -57.5t62.5 -22.5q64 0 102 46q22 25 22 60z" />
    <glyph glyph-name="b" unicode="b" horiz-adv-x="568" 
d="M529 274q0 -73 -24 -137.5t-78.5 -108.5t-129.5 -44q-82 0 -121 43v-27h-94v740h97v-286q62 93 154 93q91 0 143.5 -79.5t52.5 -193.5zM429 256q0 84 -33 142.5t-98 58.5q-55 0 -95 -48q-25 -30 -25 -65v-211q0 -32 26 -53t76 -21q73 0 111 57t38 140z" />
    <glyph glyph-name="c" unicode="c" horiz-adv-x="473" 
d="M442 37q-24 -23 -68 -38t-93 -15q-114 0 -178 78t-64 197q0 75 23.5 138t80 106.5t138.5 43.5q105 0 161 -50l-51 -84q-47 45 -105 45q-72 0 -109.5 -56.5t-37.5 -140.5q0 -83 43 -136.5t110 -53.5q56 0 105 42z" />
    <glyph glyph-name="d" unicode="d" horiz-adv-x="569" 
d="M485 0h-90v82q-62 -98 -156 -98q-63 0 -109.5 41.5t-68.5 104.5t-22 136q0 116 60 198.5t172 82.5q80 0 117 -41v234h97v-740zM389 186v211q0 34 -26.5 53.5t-78.5 19.5q-74 0 -109.5 -53t-35.5 -135q0 -54 12.5 -99.5t43.5 -77.5t76 -32q53 0 94 47q24 29 24 66z" />
    <glyph glyph-name="e" unicode="e" horiz-adv-x="527" 
d="M480 306q0 -16 -2 -46h-343q0 -2 -0.5 -6.5t-0.5 -7.5q0 -80 47 -129.5t128 -49.5q71 0 125 45l41 -76q-72 -52 -183 -52q-120 0 -186.5 77.5t-66.5 200.5q0 73 23 135.5t77 106t131 43.5q104 0 157 -70.5t53 -170.5zM389 333q2 55 -31.5 97t-92.5 42q-62 0 -94.5 -42
t-35.5 -97h254z" />
    <glyph glyph-name="f" unicode="f" horiz-adv-x="345" 
d="M421 722l-29 -81q-43 28 -89 28q-53 0 -81 -29.5t-28 -79.5v-39h138v-77h-137v-444h-96v444h-92v77h91v38q0 84 58 138t140 54q70 0 125 -29z" />
    <glyph glyph-name="g" unicode="g" horiz-adv-x="516" 
d="M494 -35q0 -88 -72 -134t-171 -46q-50 0 -97 12t-85 46t-38 85q0 43 22.5 70.5t54.5 39.5v2q-22 8 -38 30t-16 51q0 75 65 110q-54 49 -54 133q0 79 50 130.5t138 51.5q58 0 101 -25h140v-77h-77q23 -31 23 -80q0 -77 -49 -128t-139 -51q-34 0 -69 11q-11 4 -17.5 3.5
t-17.5 -9.5q-22 -13 -22 -43q0 -22 17 -35.5t45 -13.5h161q63 0 104 -33t41 -100zM349 365q0 46 -24 80.5t-72 34.5t-72.5 -34.5t-24.5 -80.5q0 -47 24 -81t72 -34q38 0 61 22t29.5 45.5t6.5 47.5zM400 -51q0 66 -75 66h-153q-25 0 -40.5 -17.5t-15.5 -49.5q0 -48 42.5 -71
t95.5 -23q62 0 104 26t42 69z" />
    <glyph glyph-name="h" unicode="h" horiz-adv-x="589" 
d="M510 0h-96v349q0 51 -27 79.5t-80 28.5q-60 0 -104 -49q-16 -19 -20.5 -31t-4.5 -36v-341h-96v740h97v-281q65 88 162 88q80 0 124.5 -48t44.5 -131v-368z" />
    <glyph glyph-name="i" unicode="i" horiz-adv-x="283" 
d="M199 687q0 -26 -15.5 -42.5t-42.5 -16.5t-43 16.5t-16 42.5q0 27 16 43.5t43 16.5t42.5 -16.5t15.5 -43.5zM188 0h-96v531h96v-531z" />
    <glyph glyph-name="j" unicode="j" horiz-adv-x="290" 
d="M206 687q0 -26 -15.5 -42.5t-42.5 -16.5t-43 16.5t-16 42.5q0 27 16 43.5t43 16.5t42.5 -16.5t15.5 -43.5zM195 33q0 -106 -47 -171t-165 -78l-11 78q66 7 96.5 46.5t30.5 119.5v503h96v-498z" />
    <glyph glyph-name="k" unicode="k" horiz-adv-x="511" 
d="M501 0h-115l-149 255l-59 -70v-185h-96v740h96v-447l186 238h113l-169 -209z" />
    <glyph glyph-name="l" unicode="l" horiz-adv-x="260" 
d="M178 0h-96v740h96v-740z" />
    <glyph glyph-name="m" unicode="m" horiz-adv-x="890" 
d="M811 0h-96v349q0 51 -25.5 79.5t-74.5 28.5q-60 0 -98 -48q-14 -17 -18 -30.5t-4 -37.5v-341h-96v349q0 51 -26 79.5t-75 28.5q-59 0 -97 -48q-14 -18 -18.5 -31t-4.5 -37v-341h-96v531h90v-78q61 94 159 94q114 0 151 -102q67 102 165 102q77 0 120.5 -48t43.5 -131
v-368z" />
    <glyph glyph-name="n" unicode="n" horiz-adv-x="589" 
d="M510 0h-96v349q0 51 -27 79.5t-80 28.5q-60 0 -104 -49q-16 -19 -20.5 -31t-4.5 -36v-341h-96v531h90v-81q65 97 169 97q80 0 124.5 -48t44.5 -131v-368z" />
    <glyph glyph-name="o" unicode="o" horiz-adv-x="562" 
d="M522 267l1 -1q0 -118 -63.5 -201.5t-180.5 -83.5q-118 0 -179 83t-61 203q0 118 63.5 200t180.5 82q61 0 108 -23t75 -63.5t42 -90t14 -105.5zM423 265q0 50 -11 92.5t-44 76t-85 33.5q-51 0 -85 -32.5t-46.5 -75.5t-12.5 -92q0 -50 11 -93t44 -77t85 -34
q75 0 109.5 61.5t34.5 140.5z" />
    <glyph glyph-name="p" unicode="p" horiz-adv-x="568" 
d="M529 273v1q0 -73 -24 -137.5t-78.5 -108.5t-129.5 -44q-82 0 -119 41v-225h-96v731h90v-83q62 99 161 99q91 0 143.5 -80t52.5 -194zM429 257q0 84 -33 142t-98 58q-54 0 -95 -47q-16 -18 -20.5 -30.5t-4.5 -34.5v-212q0 -32 26.5 -52.5t75.5 -20.5q73 0 111 57t38 140z
" />
    <glyph glyph-name="q" unicode="q" horiz-adv-x="566" 
d="M484 -200h-96v276q-62 -92 -150 -92q-63 0 -109.5 41.5t-68 104t-21.5 135.5q0 74 24 136.5t78.5 104t129.5 41.5q80 0 120 -44v28h93v-731zM388 185v211q0 33 -26 53.5t-78 20.5q-74 0 -110 -54t-36 -135q0 -85 33 -146.5t100 -61.5q56 0 94 46q23 26 23 66z" />
    <glyph glyph-name="r" unicode="r" horiz-adv-x="372" 
d="M355 535l-26 -103q-24 12 -43 12q-45 0 -84 -43q-19 -22 -19 -64v-337h-97v399q0 28 -4 132h88v-84q61 97 137 97q23 0 48 -9z" />
    <glyph glyph-name="s" unicode="s" horiz-adv-x="428" 
d="M383 149q0 -74 -56 -120t-143 -46q-96 0 -153 48l45 75q50 -44 116 -44q39 0 69.5 18.5t30.5 56.5q0 23 -14.5 40.5t-29 24.5t-41.5 18l-49 19q-110 42 -110 142q0 71 53 118.5t133 47.5q87 0 141 -44l-45 -75q-45 39 -100 39q-46 0 -69 -21t-23 -51q0 -47 71 -73l49 -19
q62 -24 93.5 -58.5t31.5 -95.5z" />
    <glyph glyph-name="t" unicode="t" horiz-adv-x="362" 
d="M344 0q-43 -17 -105 -17q-69 0 -105 40t-36 108v312h-92v77h93v114l95 33v-147h137v-77h-137v-300q0 -79 76 -79q35 0 59 13z" />
    <glyph glyph-name="u" unicode="u" horiz-adv-x="576" 
d="M493 0h-89v74q-63 -90 -159 -90q-78 0 -122 48t-44 131v368h96v-350q0 -50 26.5 -79t75.5 -29q61 0 98 48q14 18 18 30.5t4 37.5v342h96v-531z" />
    <glyph glyph-name="v" unicode="v" horiz-adv-x="482" 
d="M471 531l-179 -532h-99l-179 532h105l90 -301q29 -99 38 -137h2q14 58 39 138l92 300h91z" />
    <glyph glyph-name="w" unicode="w" horiz-adv-x="720" 
d="M692 531l-120 -532h-99l-88 323q-14 54 -24 108h-2q-3 -27 -25 -108l-91 -323h-97l-117 532h99l58 -306q17 -91 21 -117h2q21 102 25 115l82 308h99l81 -314q24 -97 26 -111h2q5 36 20 112l61 313h87z" />
    <glyph glyph-name="x" unicode="x" horiz-adv-x="472" 
d="M455 0h-115l-111 196l-107 -196h-105l163 271l-155 260h112l107 -194l105 194h101l-157 -259z" />
    <glyph glyph-name="y" unicode="y" horiz-adv-x="482" 
d="M471 531l-184 -565q-26 -81 -76 -128t-145 -54l-8 82q54 1 92 30t53 82l-189 553h105l95 -315q30 -98 37 -128h2q5 20 37 130l90 313h91z" />
    <glyph glyph-name="z" unicode="z" horiz-adv-x="459" 
d="M426 0h-390v84l268 366h-255v81h364v-89l-264 -362h277v-80z" />
    <glyph glyph-name="braceleft" unicode="{" horiz-adv-x="311" 
d="M305 -140q-110 0 -154 38.5t-44 114.5v128q0 59 -26.5 93.5t-74.5 34.5v62q48 0 74.5 34.5t26.5 93.5v128q0 76 44 114.5t154 38.5v-67q-62 0 -89 -26.5t-27 -83.5v-115q0 -58 -28.5 -97t-74.5 -51q46 -12 74.5 -51t28.5 -97v-115q0 -57 27 -83.5t89 -26.5v-67z" />
    <glyph glyph-name="bar" unicode="|" horiz-adv-x="280" 
d="M180 -216h-80v1000h80v-1000z" />
    <glyph glyph-name="braceright" unicode="}" horiz-adv-x="311" 
d="M305 269q-48 0 -74.5 -34.5t-26.5 -93.5v-128q0 -76 -44 -114.5t-154 -38.5v67q62 0 89 26.5t27 83.5v115q0 58 28.5 97t74.5 51q-46 12 -74 51t-28 97v115q0 57 -27.5 83.5t-89.5 26.5v67q110 0 154 -38.5t44 -114.5v-128q0 -59 26.5 -93.5t74.5 -34.5v-62z" />
    <glyph glyph-name="asciitilde" unicode="~" 
d="M518 304q-53 -58 -124 -58q-41 0 -116.5 34t-111.5 34q-66 0 -124 -68v102q52 57 124 57q41 0 116 -34t111 -34q66 0 125 68v-101z" />
    <glyph glyph-name="nbspace" unicode="&#xa0;" horiz-adv-x="280" 
 />
    <glyph glyph-name="exclamdown" unicode="&#xa1;" horiz-adv-x="280" 
d="M202 474q0 -28 -17 -45.5t-46 -17.5q-28 0 -45 18t-17 45q0 28 17 45.5t45 17.5t45.5 -17.5t17.5 -45.5zM191 -209h-104q0 99 4 239t8 230l4 91h71q17 -337 17 -560z" />
    <glyph glyph-name="cent" unicode="&#xa2;" 
d="M489 128q-45 -45 -139 -52v-119h-62v118q-103 9 -161.5 86t-58.5 188q0 71 22 132t73.5 105t124.5 50v121h62v-121q92 -7 138 -48l-50 -88q-35 37 -88 42v-376q55 5 94 40zM288 171v370q-58 -12 -88.5 -65t-30.5 -125q0 -67 33 -116.5t86 -63.5z" />
    <glyph glyph-name="sterling" unicode="&#xa3;" 
d="M534 0h-462v84q49 16 85 55.5t36 86.5q0 35 -26 83h-129v73h94q-33 68 -33 124q0 95 64.5 157t159.5 62q118 0 196 -89l-66 -70q-22 32 -56 51t-72 19q-58 0 -93 -36.5t-35 -94.5q0 -47 40 -123h200v-73h-166q18 -46 18 -74q0 -83 -92 -146h337v-89z" />
    <glyph glyph-name="currency" unicode="&#xa4;" 
d="M549 666l-50 -81q-45 47 -117 47q-64 0 -105 -45.5t-53 -112.5h245v-73h-258q-2 -28 -2 -41q0 -23 1 -35h259v-73h-246q11 -76 53 -126.5t114 -50.5q68 0 112 52l47 -78q-68 -66 -174 -66q-113 0 -177.5 75t-79.5 194h-71v73h62q0 5 -0.5 15t-0.5 14q0 17 2 47h-63v73h73
q24 113 90.5 182t172.5 69q104 0 166 -59z" />
    <glyph glyph-name="yen" unicode="&#xa5;" 
d="M539 706l-170 -356h146v-73h-179v-277h-100v277h-184v73h148l-179 356h114l153 -335l143 335h108z" />
    <glyph glyph-name="brokenbar" unicode="&#xa6;" horiz-adv-x="276" 
d="M184 425h-93v281h93v-281zM184 0h-93v282h93v-282z" />
    <glyph glyph-name="section" unicode="&#xa7;" 
d="M512 221q0 -85 -70 -139q35 -43 35 -105q0 -91 -66 -141.5t-156 -50.5q-113 0 -193 56l43 86q67 -53 149 -53q49 0 89 24t40 74q0 20 -6.5 36t-22 29t-27.5 20t-36 20l-117 59q-61 31 -93.5 71t-32.5 102q0 41 21.5 79t54.5 60q-34 39 -34 100q0 83 61.5 130t147.5 47
q112 0 184 -51l-42 -83q-60 48 -139 48q-53 0 -86 -24.5t-33 -65.5q0 -35 22 -56.5t63 -39.5l101 -44q69 -31 106 -74.5t37 -113.5zM423 210q0 50 -26.5 78.5t-79.5 50.5l-73 31q-44 18 -67 36q-42 -35 -42 -87q0 -43 24.5 -68.5t70.5 -46.5l81 -37q48 -21 76 -43
q37 39 36 86z" />
    <glyph glyph-name="dieresis" unicode="&#xa8;" horiz-adv-x="539" 
d="M433 689q0 -26 -15.5 -42t-41.5 -16t-41.5 16t-15.5 42q0 25 15.5 41.5t41.5 16.5t41.5 -16.5t15.5 -41.5zM221 689q0 -26 -15.5 -42t-41.5 -16t-42 16t-16 42q0 25 16 41.5t42 16.5t41.5 -16.5t15.5 -41.5z" />
    <glyph glyph-name="copyright" unicode="&#xa9;" horiz-adv-x="847" 
d="M801 354q0 -162 -107 -269t-270 -107q-164 0 -271 106.5t-107 269.5q0 156 107 266t271 110q163 0 270 -110.5t107 -265.5zM740 354q0 138 -92 229t-224 91q-133 0 -225 -90.5t-92 -229.5q0 -140 91 -231t226 -91q134 0 225 91t91 231zM590 154q-60 -47 -151 -47
q-106 0 -168 67.5t-62 172.5q0 108 63.5 180t173.5 72q90 0 142 -45l-34 -65q-40 40 -102 40q-75 0 -117 -52.5t-42 -127.5q0 -73 44 -123t117 -50q61 0 103 42z" />
    <glyph glyph-name="ordfeminine" unicode="&#xaa;" horiz-adv-x="363" 
d="M348 366q-19 -6 -48 -6q-52 0 -61 45q-44 -50 -109 -50q-43 0 -73.5 27.5t-30.5 70.5q0 114 175 114q20 0 25.5 2.5t5.5 10.5v20q0 61 -73 61q-54 0 -92 -33l-22 60q56 37 127 37q66 0 104 -31t38 -93v-163q0 -20 14 -20q3 0 15 4zM232 473v43h-27q-97 0 -97 -58
q0 -20 14 -33t37 -13q39 0 63 31q10 16 10 30z" />
    <glyph glyph-name="guillemotleft" unicode="&#xab;" horiz-adv-x="486" 
d="M468 65h-84l-151 204l151 204h84l-129 -204zM253 65h-84l-151 204l151 204h84l-130 -204z" />
    <glyph glyph-name="logicalnot" unicode="&#xac;" 
d="M525 64h-88v216h-402v93h490v-309z" />
    <glyph glyph-name="registered" unicode="&#xae;" horiz-adv-x="847" 
d="M801 354q0 -162 -107 -269t-270 -107q-164 0 -271 106.5t-107 269.5q0 156 107 266t271 110q163 0 270 -110.5t107 -265.5zM740 354q0 138 -92 229t-224 91q-133 0 -225 -90.5t-92 -229.5q0 -140 91 -231t226 -91q134 0 225 91t91 231zM625 127h-93l-112 171
q-13 20 -30 20h-46v-191h-77v458h132q189 0 189 -129q0 -47 -29.5 -78t-77.5 -42q88 -134 144 -209zM507 450q0 74 -117 74h-46v-154h46q117 0 117 80z" />
    <glyph glyph-name="macron" unicode="&#xaf;" horiz-adv-x="539" 
d="M451 636h-363v67h363v-67z" />
    <glyph glyph-name="degree" unicode="&#xb0;" 
d="M421 550q0 -59 -41 -101t-100 -42q-58 0 -99.5 42t-41.5 101q0 61 40.5 102.5t99.5 41.5t100.5 -42.5t41.5 -101.5zM350 550q1 32 -19 56.5t-52 24.5t-52 -24.5t-20 -56.5t19.5 -56t51.5 -24t52 24t20 56z" />
    <glyph glyph-name="plusminus" unicode="&#xb1;" 
d="M525 304h-201v-175h-87v175h-202v92h201v176h87v-176h202v-92zM525 0h-490v93h490v-93z" />
    <glyph glyph-name="twosuperior" unicode="&#xb2;" horiz-adv-x="371" 
d="M324 268h-272v52q4 39 30 72t75 74q22 18 35.5 31.5t25.5 35.5t12 44q0 37 -23 56.5t-53 19.5q-54 0 -88 -45l-30 59q51 53 137 53q60 0 102 -34t42 -98q0 -47 -25 -81t-71 -71q-2 -2 -12 -10t-12.5 -10.5t-11 -9.5t-11.5 -10.5t-10 -10.5t-9.5 -12t-7 -12t-7 -13.5
t-3.5 -13.5h187v-66z" />
    <glyph glyph-name="threesuperior" unicode="&#xb3;" horiz-adv-x="357" 
d="M308 402q0 -70 -50 -106t-122 -36t-120 42l29 55q32 -35 83 -35q41 0 68.5 22t27.5 62q0 34 -27 51t-68 17h-46v58h44q34 0 59 16.5t25 47.5q0 30 -22.5 47t-55.5 17q-51 0 -81 -36l-27 56q54 43 128 43q58 0 99.5 -29t41.5 -84q0 -70 -70 -98v-2q39 -10 61.5 -38.5
t22.5 -69.5z" />
    <glyph glyph-name="acute" unicode="&#xb4;" horiz-adv-x="539" 
d="M385 740l-153 -155h-78l116 155h115z" />
    <glyph glyph-name="mu" unicode="&#xb5;" horiz-adv-x="552" 
d="M535 2q-35 -11 -66 -11q-66 0 -74 83q-61 -90 -154 -90q-55 0 -81 29l4 -213h-97v731h96v-350q0 -50 27 -79t76 -29q60 0 98 48q14 18 18 30.5t4 37.5v342h96v-430q0 -34 23 -34q11 0 23 4z" />
    <glyph glyph-name="paragraph" unicode="&#xb6;" horiz-adv-x="581" 
d="M556 636h-93v-611q0 -110 -57 -175t-164 -65q-12 0 -36 2l4 72q3 0 8.5 -0.5t7.5 -0.5q73 0 108.5 48.5t35.5 127.5v178h-109q-104 0 -162 67.5t-58 176.5q0 114 62 182t172 68h281v-70zM370 283v353h-81v-353h81z" />
    <glyph glyph-name="periodcentered" unicode="&#xb7;" horiz-adv-x="280" 
d="M203 310q0 -28 -17 -46t-45 -18t-45.5 18t-17.5 46q0 27 17 45t45 18t45.5 -18t17.5 -45z" />
    <glyph glyph-name="cedilla" unicode="&#xb8;" horiz-adv-x="539" 
d="M338 -83q0 -67 -66 -117h-70q56 54 56 107q0 31 -16 57h83q13 -26 13 -47z" />
    <glyph glyph-name="onesuperior" unicode="&#xb9;" horiz-adv-x="332" 
d="M221 265h-81v359q-42 -28 -98 -53l-25 63q72 30 132 72h72v-441z" />
    <glyph glyph-name="ordmasculine" unicode="&#xba;" horiz-adv-x="386" 
d="M366 543q0 -82 -45 -136.5t-129 -54.5t-128 52t-44 134t45 135.5t129 53.5t128 -51.5t44 -132.5zM278 543q0 49 -20.5 83.5t-63.5 34.5t-64 -35.5t-21 -86.5q0 -50 20 -85t63 -35q44 0 65 36.5t21 87.5z" />
    <glyph glyph-name="guillemotright" unicode="&#xbb;" horiz-adv-x="486" 
d="M468 269l-150 -204h-85l130 204l-130 204h85zM253 269l-151 -204h-84l130 204l-130 204h84z" />
    <glyph glyph-name="onequarter" unicode="&#xbc;" horiz-adv-x="770" 
d="M742 92h-60v-92h-75v92h-198v68l177 281h96v-282h60v-67zM620 706l-416 -706h-82l416 706h82zM221 265h-81v359q-42 -28 -98 -53l-25 63q72 30 132 72h72v-441zM607 159v200h-3q-15 -34 -31 -58l-94 -142h128z" />
    <glyph glyph-name="onehalf" unicode="&#xbd;" horiz-adv-x="831" 
d="M786 0h-272v52q4 39 29.5 72t74.5 74q22 18 36 31.5t26 35.5t12 44q0 37 -23.5 56.5t-52.5 19.5q-54 0 -88 -45l-30 58q51 54 137 54q59 0 101.5 -34t42.5 -99q0 -47 -24.5 -80t-71.5 -72q-26 -21 -37.5 -31t-27 -30.5t-19.5 -39.5h187v-66zM620 706l-416 -706h-81
l416 706h81zM221 265h-81v359q-42 -28 -98 -53l-25 63q72 30 132 72h72v-441z" />
    <glyph glyph-name="threequarters" unicode="&#xbe;" horiz-adv-x="822" 
d="M795 92h-59v-92h-76v92h-197v68l177 281h96v-282h59v-67zM676 706l-415 -706h-81l415 706h81zM308 402q0 -70 -50 -106t-122 -36t-120 42l29 55q32 -35 83 -35q41 0 68.5 22t27.5 62q0 34 -27 51t-68 17h-46v58h44q34 0 59 16.5t25 47.5q0 30 -22.5 47t-55.5 17
q-51 0 -81 -36l-27 56q54 43 128 43q58 0 99.5 -29t41.5 -84q0 -70 -70 -98v-2q39 -10 61.5 -38.5t22.5 -69.5zM660 159v200h-2q-11 -26 -32 -58l-93 -142h127z" />
    <glyph glyph-name="questiondown" unicode="&#xbf;" horiz-adv-x="497" 
d="M324 474q0 -28 -17 -45.5t-45 -17.5q-29 0 -45.5 17.5t-16.5 45.5t16.5 45.5t45.5 17.5q28 0 45 -18t17 -45zM463 -139q-82 -80 -206 -80q-85 0 -145 51.5t-60 138.5q0 77 69 153q27 29 98 89q0 8 3 62.5t4 74.5h70l10 -166q-78 -65 -89 -76q-60 -60 -60 -123
q0 -50 33 -85t87 -35q75 0 132 68z" />
    <glyph glyph-name="Agrave" unicode="&#xc0;" horiz-adv-x="635" 
d="M627 0h-113l-62 168h-279l-60 -168h-105l250 708h115zM425 257l-77 218q-26 77 -34 125h-3q-8 -49 -35 -126l-75 -217h224zM369 745h-77l-154 155h115z" />
    <glyph glyph-name="Aacute" unicode="&#xc1;" horiz-adv-x="635" 
d="M627 0h-113l-62 168h-279l-60 -168h-105l250 708h115zM425 257l-77 218q-26 77 -34 125h-3q-8 -49 -35 -126l-75 -217h224zM495 900l-153 -155h-78l116 155h115z" />
    <glyph glyph-name="Acircumflex" unicode="&#xc2;" horiz-adv-x="635" 
d="M627 0h-113l-62 168h-279l-60 -168h-105l250 708h115zM425 257l-77 218q-26 77 -34 125h-3q-8 -49 -35 -126l-75 -217h224zM486 745h-78l-89 95l-88 -95h-77l118 155h95z" />
    <glyph glyph-name="Atilde" unicode="&#xc3;" horiz-adv-x="635" 
d="M627 0h-113l-62 168h-279l-60 -168h-105l250 708h115zM425 257l-77 218q-26 77 -34 125h-3q-8 -49 -35 -126l-75 -217h224zM492 892q-17 -126 -101 -126q-27 0 -73 25t-66 25q-37 0 -49 -57h-62q19 126 101 126q26 0 72 -25t67 -25q38 0 48 57h63z" />
    <glyph glyph-name="Adieresis" unicode="&#xc4;" horiz-adv-x="635" 
d="M627 0h-113l-62 168h-279l-60 -168h-105l250 708h115zM425 257l-77 218q-26 77 -34 125h-3q-8 -49 -35 -126l-75 -217h224zM482 842q0 -26 -15.5 -42t-41.5 -16t-41.5 16t-15.5 42q0 25 15.5 41.5t41.5 16.5t41.5 -16.5t15.5 -41.5zM270 842q0 -26 -15.5 -42t-41.5 -16
t-42 16t-16 42q0 25 16 41.5t42 16.5t41.5 -16.5t15.5 -41.5z" />
    <glyph glyph-name="Aring" unicode="&#xc5;" horiz-adv-x="635" 
d="M627 0h-113l-62 168h-279l-60 -168h-105l250 708h115zM425 257l-77 218q-26 77 -34 125h-3q-8 -49 -35 -126l-75 -217h224zM420 830q0 -45 -27 -74t-78 -29q-50 0 -76.5 28t-26.5 72q0 45 27 73.5t77 28.5q51 0 77.5 -27.5t26.5 -71.5zM366 829q0 23 -12 39.5t-38 16.5
t-38 -17t-12 -41q0 -23 12 -39.5t37 -16.5q26 0 38.5 17.5t12.5 40.5z" />
    <glyph glyph-name="AE" unicode="&#xc6;" horiz-adv-x="908" 
d="M845 0h-353l-48 281h-211l-124 -281h-107l311 706h497v-95h-316l40 -227h275v-92h-260l35 -197h261v-95zM431 364l-45 266h-7l-117 -266h169z" />
    <glyph glyph-name="Ccedilla" unicode="&#xc7;" horiz-adv-x="625" 
d="M586 47q-82 -64 -208 -64q-156 0 -245 103t-89 259q0 73 20 139.5t59.5 121t105 87t148.5 32.5q132 0 210 -58l-50 -93q-68 53 -155 53q-59 0 -104.5 -25t-71.5 -66.5t-39 -89t-13 -98.5q0 -116 65.5 -191.5t170.5 -75.5q91 0 155 54zM427 -83q0 -67 -66 -117h-70
q56 54 56 107q0 31 -16 57h83q13 -26 13 -47z" />
    <glyph glyph-name="Egrave" unicode="&#xc8;" horiz-adv-x="563" 
d="M500 0h-411v706h396v-95h-290v-191h280v-92h-280v-233h305v-95zM353 745h-77l-154 155h115z" />
    <glyph glyph-name="Eacute" unicode="&#xc9;" horiz-adv-x="563" 
d="M500 0h-411v706h396v-95h-290v-191h280v-92h-280v-233h305v-95zM469 900l-153 -155h-78l116 155h115z" />
    <glyph glyph-name="Ecircumflex" unicode="&#xca;" horiz-adv-x="563" 
d="M500 0h-411v706h396v-95h-290v-191h280v-92h-280v-233h305v-95zM452 745h-78l-89 95l-88 -95h-77l118 155h95z" />
    <glyph glyph-name="Edieresis" unicode="&#xcb;" horiz-adv-x="563" 
d="M500 0h-411v706h396v-95h-290v-191h280v-92h-280v-233h305v-95zM449 842q0 -26 -15.5 -42t-41.5 -16t-41.5 16t-15.5 42q0 25 15.5 41.5t41.5 16.5t41.5 -16.5t15.5 -41.5zM237 842q0 -26 -15.5 -42t-41.5 -16t-42 16t-16 42q0 25 16 41.5t42 16.5t41.5 -16.5t15.5 -41.5
z" />
    <glyph glyph-name="Igrave" unicode="&#xcc;" horiz-adv-x="292" 
d="M199 0h-106v706h106v-706zM203 743h-77l-154 155h115z" />
    <glyph glyph-name="Iacute" unicode="&#xcd;" horiz-adv-x="292" 
d="M199 0h-106v706h106v-706zM325 900l-153 -155h-78l116 155h115z" />
    <glyph glyph-name="Icircumflex" unicode="&#xce;" horiz-adv-x="292" 
d="M199 0h-106v706h106v-706zM315 745h-78l-89 95l-88 -95h-77l118 155h95z" />
    <glyph glyph-name="Idieresis" unicode="&#xcf;" horiz-adv-x="292" 
d="M199 0h-106v706h106v-706zM310 842q0 -26 -15.5 -42t-41.5 -16t-41.5 16t-15.5 42q0 25 15.5 41.5t41.5 16.5t41.5 -16.5t15.5 -41.5zM98 842q0 -26 -15.5 -42t-41.5 -16t-42 16t-16 42q0 25 16 41.5t42 16.5t41.5 -16.5t15.5 -41.5z" />
    <glyph glyph-name="Eth" unicode="&#xd0;" horiz-adv-x="728" 
d="M684 369q0 -369 -422 -369h-178v331h-79v87h79v288h183q42 0 77 -2.5t79.5 -10.5t79 -22t70 -39.5t59 -60t38 -86.5t14.5 -116zM575 362q0 251 -295 251h-89v-195h173v-87h-173v-239h91q293 0 293 270z" />
    <glyph glyph-name="Ntilde" unicode="&#xd1;" horiz-adv-x="745" 
d="M656 0h-98l-300 414q-50 69 -68 113h-2v-527h-99v706h100l288 -411q64 -93 78 -127h3v538h98v-706zM555 892q-17 -126 -101 -126q-26 0 -72 25t-67 25q-37 0 -49 -57h-62q19 126 101 126q27 0 73 -25t66 -25q38 0 48 57h63z" />
    <glyph glyph-name="Ograve" unicode="&#xd2;" horiz-adv-x="724" 
d="M680 354q0 -97 -28 -171.5t-75 -117t-102 -63.5t-114 -21q-146 0 -231.5 96t-85.5 277q0 97 28 171.5t75 117t102 63.5t114 21q146 0 231.5 -96t85.5 -277zM571 354q0 56 -11.5 104t-35.5 88t-65.5 63t-96.5 23q-56 0 -97.5 -23t-65 -62.5t-35 -88t-11.5 -104.5
t11.5 -104t35.5 -88t65.5 -63t96.5 -23q56 0 97.5 23t65 62.5t35 88t11.5 104.5zM413 745h-77l-154 155h115z" />
    <glyph glyph-name="Oacute" unicode="&#xd3;" horiz-adv-x="724" 
d="M680 354q0 -97 -28 -171.5t-75 -117t-102 -63.5t-114 -21q-146 0 -231.5 96t-85.5 277q0 97 28 171.5t75 117t102 63.5t114 21q146 0 231.5 -96t85.5 -277zM571 354q0 56 -11.5 104t-35.5 88t-65.5 63t-96.5 23q-56 0 -97.5 -23t-65 -62.5t-35 -88t-11.5 -104.5
t11.5 -104t35.5 -88t65.5 -63t96.5 -23q56 0 97.5 23t65 62.5t35 88t11.5 104.5zM543 900l-153 -155h-78l116 155h115z" />
    <glyph glyph-name="Ocircumflex" unicode="&#xd4;" horiz-adv-x="724" 
d="M680 354q0 -97 -28 -171.5t-75 -117t-102 -63.5t-114 -21q-146 0 -231.5 96t-85.5 277q0 97 28 171.5t75 117t102 63.5t114 21q146 0 231.5 -96t85.5 -277zM571 354q0 56 -11.5 104t-35.5 88t-65.5 63t-96.5 23q-56 0 -97.5 -23t-65 -62.5t-35 -88t-11.5 -104.5
t11.5 -104t35.5 -88t65.5 -63t96.5 -23q56 0 97.5 23t65 62.5t35 88t11.5 104.5zM530 745h-78l-89 95l-88 -95h-77l118 155h95z" />
    <glyph glyph-name="Otilde" unicode="&#xd5;" horiz-adv-x="724" 
d="M680 354q0 -97 -28 -171.5t-75 -117t-102 -63.5t-114 -21q-146 0 -231.5 96t-85.5 277q0 97 28 171.5t75 117t102 63.5t114 21q146 0 231.5 -96t85.5 -277zM571 354q0 56 -11.5 104t-35.5 88t-65.5 63t-96.5 23q-56 0 -97.5 -23t-65 -62.5t-35 -88t-11.5 -104.5
t11.5 -104t35.5 -88t65.5 -63t96.5 -23q56 0 97.5 23t65 62.5t35 88t11.5 104.5zM549 892q-17 -126 -101 -126q-26 0 -72 25t-67 25q-37 0 -49 -57h-62q19 126 101 126q27 0 73 -25t66 -25q38 0 48 57h63z" />
    <glyph glyph-name="Odieresis" unicode="&#xd6;" horiz-adv-x="724" 
d="M680 354q0 -97 -28 -171.5t-75 -117t-102 -63.5t-114 -21q-146 0 -231.5 96t-85.5 277q0 97 28 171.5t75 117t102 63.5t114 21q146 0 231.5 -96t85.5 -277zM571 354q0 56 -11.5 104t-35.5 88t-65.5 63t-96.5 23q-56 0 -97.5 -23t-65 -62.5t-35 -88t-11.5 -104.5
t11.5 -104t35.5 -88t65.5 -63t96.5 -23q56 0 97.5 23t65 62.5t35 88t11.5 104.5zM530 842q0 -26 -15.5 -42t-41.5 -16t-41.5 16t-15.5 42q0 25 15.5 41.5t41.5 16.5t41.5 -16.5t15.5 -41.5zM318 842q0 -26 -15.5 -42t-41.5 -16t-42 16t-16 42q0 25 16 41.5t42 16.5
t41.5 -16.5t15.5 -41.5z" />
    <glyph glyph-name="multiply" unicode="&#xd7;" 
d="M512 157l-63 -66l-170 169l-170 -170l-62 66l170 169l-170 169l63 67l170 -169l171 170l62 -66l-171 -170z" />
    <glyph glyph-name="Oslash" unicode="&#xd8;" horiz-adv-x="724" 
d="M710 699l-89 -100q63 -94 63 -245q0 -97 -28.5 -172t-75.5 -117t-101.5 -63t-113.5 -21q-137 0 -220 83l-90 -100l-43 41l96 108q-61 93 -61 241q0 97 28 171.5t75 117t102 63.5t114 21q134 0 217 -80l84 93zM514 565q-54 67 -149 67q-73 0 -121.5 -40.5t-67.5 -100.5
t-19 -137q0 -86 30 -147zM574 354q0 88 -32 152l-327 -360q54 -70 150 -70q56 0 97.5 23t65 62.5t35 88t11.5 104.5z" />
    <glyph glyph-name="Ugrave" unicode="&#xd9;" horiz-adv-x="730" 
d="M652 275q0 -292 -286 -292q-287 0 -287 292v431h106v-428q0 -200 182 -200q181 0 181 200v428h104v-431zM418 745h-77l-154 155h115z" />
    <glyph glyph-name="Uacute" unicode="&#xda;" horiz-adv-x="730" 
d="M652 275q0 -292 -286 -292q-287 0 -287 292v431h106v-428q0 -200 182 -200q181 0 181 200v428h104v-431zM547 900l-153 -155h-78l116 155h115z" />
    <glyph glyph-name="Ucircumflex" unicode="&#xdb;" horiz-adv-x="730" 
d="M652 275q0 -292 -286 -292q-287 0 -287 292v431h106v-428q0 -200 182 -200q181 0 181 200v428h104v-431zM537 745h-78l-89 95l-88 -95h-77l118 155h95z" />
    <glyph glyph-name="Udieresis" unicode="&#xdc;" horiz-adv-x="730" 
d="M652 275q0 -292 -286 -292q-287 0 -287 292v431h106v-428q0 -200 182 -200q181 0 181 200v428h104v-431zM533 842q0 -26 -15.5 -42t-41.5 -16t-41.5 16t-15.5 42q0 25 15.5 41.5t41.5 16.5t41.5 -16.5t15.5 -41.5zM321 842q0 -26 -15.5 -42t-41.5 -16t-42 16t-16 42
q0 25 16 41.5t42 16.5t41.5 -16.5t15.5 -41.5z" />
    <glyph glyph-name="Yacute" unicode="&#xdd;" horiz-adv-x="568" 
d="M556 706l-213 -439v-267h-106v266l-225 440h124l157 -337l149 337h114zM482 900l-153 -155h-78l116 155h115z" />
    <glyph glyph-name="Thorn" unicode="&#xde;" horiz-adv-x="592" 
d="M554 433q0 -69 -25.5 -117t-69.5 -72t-90 -33.5t-101 -9.5h-73v-201h-106v706h106v-59h72q24 0 42.5 -1t50.5 -5t55.5 -12t51.5 -24t45.5 -38t29.5 -56.5t12 -77.5zM446 426q0 129 -174 129h-77v-263h74q177 0 177 134z" />
    <glyph glyph-name="germandbls" unicode="&#xdf;" horiz-adv-x="613" 
d="M581 149q0 -74 -55.5 -120t-142.5 -46q-91 0 -148 46l44 76q49 -43 111 -43q40 0 70 18.5t30 56.5q0 21 -13 38t-26.5 24.5t-38.5 18.5q-5 2 -7 3l-47 21q-105 48 -105 137q0 80 100 128q42 19 61.5 38.5t19.5 48.5q0 38 -33 59.5t-77 21.5q-60 0 -93 -38.5t-33 -96.5
v-540h-97v533q0 99 65.5 158.5t162.5 59.5q83 0 142 -41t59 -120q0 -81 -108 -126q-41 -17 -60.5 -33.5t-19.5 -38.5q0 -23 16.5 -38.5t48.5 -28.5l50 -20q61 -24 92.5 -59.5t31.5 -96.5z" />
    <glyph glyph-name="agrave" unicode="&#xe0;" horiz-adv-x="523" 
d="M500 2q-35 -11 -66 -11q-65 0 -72 79q-66 -85 -162 -85q-66 0 -109.5 42.5t-43.5 106.5q0 171 262 171q30 0 38 2.5t8 13.5v48q0 43 -27.5 70.5t-83.5 27.5q-76 0 -129 -53l-45 72q76 61 195 61q76 0 129 -42t53 -136v-268q0 -34 23 -34q9 0 23 4zM354 169v68
q-8 0 -24.5 0.5t-25.5 0.5q-161 0 -161 -95q0 -35 24.5 -57.5t62.5 -22.5q64 0 102 46q22 25 22 60zM300 584h-77l-154 155h115z" />
    <glyph glyph-name="aacute" unicode="&#xe1;" horiz-adv-x="523" 
d="M500 2q-35 -11 -66 -11q-65 0 -72 79q-66 -85 -162 -85q-66 0 -109.5 42.5t-43.5 106.5q0 171 262 171q30 0 38 2.5t8 13.5v48q0 43 -27.5 70.5t-83.5 27.5q-76 0 -129 -53l-45 72q76 61 195 61q76 0 129 -42t53 -136v-268q0 -34 23 -34q9 0 23 4zM354 169v68
q-8 0 -24.5 0.5t-25.5 0.5q-161 0 -161 -95q0 -35 24.5 -57.5t62.5 -22.5q64 0 102 46q22 25 22 60zM433 740l-153 -155h-78l116 155h115z" />
    <glyph glyph-name="acircumflex" unicode="&#xe2;" horiz-adv-x="523" 
d="M500 2q-35 -11 -66 -11q-65 0 -72 79q-66 -85 -162 -85q-66 0 -109.5 42.5t-43.5 106.5q0 171 262 171q30 0 38 2.5t8 13.5v48q0 43 -27.5 70.5t-83.5 27.5q-76 0 -129 -53l-45 72q76 61 195 61q76 0 129 -42t53 -136v-268q0 -34 23 -34q9 0 23 4zM354 169v68
q-8 0 -24.5 0.5t-25.5 0.5q-161 0 -161 -95q0 -35 24.5 -57.5t62.5 -22.5q64 0 102 46q22 25 22 60zM424 585h-78l-89 95l-88 -95h-77l118 155h95z" />
    <glyph glyph-name="atilde" unicode="&#xe3;" horiz-adv-x="523" 
d="M500 2q-35 -11 -66 -11q-65 0 -72 79q-66 -85 -162 -85q-66 0 -109.5 42.5t-43.5 106.5q0 171 262 171q30 0 38 2.5t8 13.5v48q0 43 -27.5 70.5t-83.5 27.5q-76 0 -129 -53l-45 72q76 61 195 61q76 0 129 -42t53 -136v-268q0 -34 23 -34q9 0 23 4zM354 169v68
q-8 0 -24.5 0.5t-25.5 0.5q-161 0 -161 -95q0 -35 24.5 -57.5t62.5 -22.5q64 0 102 46q22 25 22 60zM440 732q-17 -126 -101 -126q-27 0 -73 25t-66 25q-37 0 -49 -57h-62q19 126 101 126q27 0 72.5 -25t66.5 -25q38 0 48 57h63z" />
    <glyph glyph-name="adieresis" unicode="&#xe4;" horiz-adv-x="523" 
d="M500 2q-35 -11 -66 -11q-65 0 -72 79q-66 -85 -162 -85q-66 0 -109.5 42.5t-43.5 106.5q0 171 262 171q30 0 38 2.5t8 13.5v48q0 43 -27.5 70.5t-83.5 27.5q-76 0 -129 -53l-45 72q76 61 195 61q76 0 129 -42t53 -136v-268q0 -34 23 -34q9 0 23 4zM354 169v68
q-8 0 -24.5 0.5t-25.5 0.5q-161 0 -161 -95q0 -35 24.5 -57.5t62.5 -22.5q64 0 102 46q22 25 22 60zM423 689q0 -26 -15.5 -42t-41.5 -16t-41.5 16t-15.5 42q0 25 15.5 41.5t41.5 16.5t41.5 -16.5t15.5 -41.5zM211 689q0 -26 -15.5 -42t-41.5 -16t-42 16t-16 42
q0 25 16 41.5t42 16.5t41.5 -16.5t15.5 -41.5z" />
    <glyph glyph-name="aring" unicode="&#xe5;" horiz-adv-x="523" 
d="M500 2q-35 -11 -66 -11q-65 0 -72 79q-66 -85 -162 -85q-66 0 -109.5 42.5t-43.5 106.5q0 171 262 171q30 0 38 2.5t8 13.5v48q0 43 -27.5 70.5t-83.5 27.5q-76 0 -129 -53l-45 72q76 61 195 61q76 0 129 -42t53 -136v-268q0 -34 23 -34q9 0 23 4zM354 169v68
q-8 0 -24.5 0.5t-25.5 0.5q-161 0 -161 -95q0 -35 24.5 -57.5t62.5 -22.5q64 0 102 46q22 25 22 60zM360 680q0 -45 -27 -74t-78 -29q-50 0 -76.5 28t-26.5 72q0 45 27 73.5t77 28.5q51 0 77.5 -27.5t26.5 -71.5zM306 679q0 23 -12 39.5t-38 16.5t-38 -17t-12 -41
q0 -23 12 -39.5t37 -16.5q26 0 38.5 17.5t12.5 40.5z" />
    <glyph glyph-name="ae" unicode="&#xe6;" horiz-adv-x="831" 
d="M784 304q0 -39 -2 -54h-343v-11q0 -73 46.5 -122.5t127.5 -49.5q71 0 125 45l41 -76q-72 -52 -183 -52q-147 0 -211 112q-26 -44 -74 -77.5t-119 -33.5q-67 0 -109.5 43t-42.5 110q0 179 261 179q29 0 37.5 2.5t8.5 13.5v34q0 43 -27.5 71.5t-83.5 28.5q-76 0 -129 -53
l-45 72q76 61 195 61q51 0 92 -23t59 -65q57 88 167 88q103 0 156 -70.5t53 -172.5zM693 322q4 65 -31 107.5t-93 42.5q-63 0 -96.5 -44.5t-33.5 -105.5h254zM354 168q0 3 -2 11t-2 11q-6 32 -6 59q-14 1 -42 1q-167 0 -167 -100q0 -39 23.5 -63t64.5 -24q63 0 102 46
q29 36 29 59z" />
    <glyph glyph-name="ccedilla" unicode="&#xe7;" horiz-adv-x="473" 
d="M442 37q-24 -23 -68 -38t-93 -15q-114 0 -178 78t-64 197q0 75 23.5 138t80 106.5t138.5 43.5q105 0 161 -50l-51 -84q-47 45 -105 45q-72 0 -109.5 -56.5t-37.5 -140.5q0 -83 43 -136.5t110 -53.5q56 0 105 42zM320 -83q0 -67 -66 -117h-70q56 54 56 107q0 31 -16 57h83
q13 -26 13 -47z" />
    <glyph glyph-name="egrave" unicode="&#xe8;" horiz-adv-x="527" 
d="M480 306q0 -16 -2 -46h-343q0 -2 -0.5 -6.5t-0.5 -7.5q0 -80 47 -129.5t128 -49.5q71 0 125 45l41 -76q-72 -52 -183 -52q-120 0 -186.5 77.5t-66.5 200.5q0 73 23 135.5t77 106t131 43.5q104 0 157 -70.5t53 -170.5zM389 333q2 55 -31.5 97t-92.5 42q-62 0 -94.5 -42
t-35.5 -97h254zM319 585h-77l-154 155h115z" />
    <glyph glyph-name="eacute" unicode="&#xe9;" horiz-adv-x="527" 
d="M480 306q0 -16 -2 -46h-343q0 -2 -0.5 -6.5t-0.5 -7.5q0 -80 47 -129.5t128 -49.5q71 0 125 45l41 -76q-72 -52 -183 -52q-120 0 -186.5 77.5t-66.5 200.5q0 73 23 135.5t77 106t131 43.5q104 0 157 -70.5t53 -170.5zM389 333q2 55 -31.5 97t-92.5 42q-62 0 -94.5 -42
t-35.5 -97h254zM453 740l-153 -155h-78l116 155h115z" />
    <glyph glyph-name="ecircumflex" unicode="&#xea;" horiz-adv-x="527" 
d="M480 306q0 -16 -2 -46h-343q0 -2 -0.5 -6.5t-0.5 -7.5q0 -80 47 -129.5t128 -49.5q71 0 125 45l41 -76q-72 -52 -183 -52q-120 0 -186.5 77.5t-66.5 200.5q0 73 23 135.5t77 106t131 43.5q104 0 157 -70.5t53 -170.5zM389 333q2 55 -31.5 97t-92.5 42q-62 0 -94.5 -42
t-35.5 -97h254zM436 585h-78l-89 95l-88 -95h-77l118 155h95z" />
    <glyph glyph-name="edieresis" unicode="&#xeb;" horiz-adv-x="527" 
d="M480 306q0 -16 -2 -46h-343q0 -2 -0.5 -6.5t-0.5 -7.5q0 -80 47 -129.5t128 -49.5q71 0 125 45l41 -76q-72 -52 -183 -52q-120 0 -186.5 77.5t-66.5 200.5q0 73 23 135.5t77 106t131 43.5q104 0 157 -70.5t53 -170.5zM389 333q2 55 -31.5 97t-92.5 42q-62 0 -94.5 -42
t-35.5 -97h254zM439 689q0 -26 -15.5 -42t-41.5 -16t-41.5 16t-15.5 42q0 25 15.5 41.5t41.5 16.5t41.5 -16.5t15.5 -41.5zM227 689q0 -26 -15.5 -42t-41.5 -16t-42 16t-16 42q0 25 16 41.5t42 16.5t41.5 -16.5t15.5 -41.5z" />
    <glyph glyph-name="igrave" unicode="&#xec;" horiz-adv-x="283" 
d="M187 0h-96v531h96v-531zM186 585h-77l-154 155h115z" />
    <glyph glyph-name="iacute" unicode="&#xed;" horiz-adv-x="283" 
d="M187 0h-96v531h96v-531zM319 740l-153 -155h-78l116 155h115z" />
    <glyph glyph-name="icircumflex" unicode="&#xee;" horiz-adv-x="283" 
d="M187 0h-96v531h96v-531zM307 585h-78l-89 95l-88 -95h-77l118 155h95z" />
    <glyph glyph-name="idieresis" unicode="&#xef;" horiz-adv-x="283" 
d="M187 0h-96v531h96v-531zM305 689q0 -26 -15.5 -42t-41.5 -16t-41.5 16t-15.5 42q0 25 15.5 41.5t41.5 16.5t41.5 -16.5t15.5 -41.5zM93 689q0 -26 -15.5 -42t-41.5 -16t-42 16t-16 42q0 25 16 41.5t42 16.5t41.5 -16.5t15.5 -41.5z" />
    <glyph glyph-name="eth" unicode="&#xf0;" horiz-adv-x="573" 
d="M530 302q0 -142 -62.5 -231.5t-183.5 -89.5q-61 0 -108 23t-75.5 62t-42.5 87.5t-14 103.5q0 117 61 195.5t168 78.5q47 0 86.5 -19t57.5 -52q-19 103 -82 159l-81 -55l-37 48l65 41q-36 19 -89 19q-43 0 -81 -18l-15 79q44 16 104 16q82 0 145 -37l75 50l37 -47l-60 -38
q66 -61 99 -162.5t33 -212.5zM429 258q0 87 -33.5 139t-107.5 52q-51 0 -85 -31t-46.5 -71.5t-12.5 -88.5q0 -35 6.5 -67t21.5 -62t44 -48t68 -18q75 0 110 57.5t35 137.5z" />
    <glyph glyph-name="ntilde" unicode="&#xf1;" horiz-adv-x="589" 
d="M510 0h-96v349q0 51 -27 79.5t-80 28.5q-60 0 -104 -49q-16 -19 -20.5 -31t-4.5 -36v-341h-96v531h90v-81q65 97 169 97q80 0 124.5 -48t44.5 -131v-368zM481 732q-17 -126 -101 -126q-26 0 -72 25t-67 25q-37 0 -49 -57h-62q19 126 101 126q27 0 73 -25t66 -25
q38 0 48 57h63z" />
    <glyph glyph-name="ograve" unicode="&#xf2;" horiz-adv-x="562" 
d="M522 267l1 -1q0 -118 -63.5 -201.5t-180.5 -83.5q-118 0 -179 83t-61 203q0 118 63.5 200t180.5 82q61 0 108 -23t75 -63.5t42 -90t14 -105.5zM423 265q0 50 -11 92.5t-44 76t-85 33.5q-51 0 -85 -32.5t-46.5 -75.5t-12.5 -92q0 -50 11 -93t44 -77t85 -34
q75 0 109.5 61.5t34.5 140.5zM329 585h-77l-154 155h115z" />
    <glyph glyph-name="oacute" unicode="&#xf3;" horiz-adv-x="562" 
d="M522 267l1 -1q0 -118 -63.5 -201.5t-180.5 -83.5q-118 0 -179 83t-61 203q0 118 63.5 200t180.5 82q61 0 108 -23t75 -63.5t42 -90t14 -105.5zM423 265q0 50 -11 92.5t-44 76t-85 33.5q-51 0 -85 -32.5t-46.5 -75.5t-12.5 -92q0 -50 11 -93t44 -77t85 -34
q75 0 109.5 61.5t34.5 140.5zM462 740l-153 -155h-78l116 155h115z" />
    <glyph glyph-name="ocircumflex" unicode="&#xf4;" horiz-adv-x="562" 
d="M522 267l1 -1q0 -118 -63.5 -201.5t-180.5 -83.5q-118 0 -179 83t-61 203q0 118 63.5 200t180.5 82q61 0 108 -23t75 -63.5t42 -90t14 -105.5zM423 265q0 50 -11 92.5t-44 76t-85 33.5q-51 0 -85 -32.5t-46.5 -75.5t-12.5 -92q0 -50 11 -93t44 -77t85 -34
q75 0 109.5 61.5t34.5 140.5zM453 585h-78l-89 95l-88 -95h-77l118 155h95z" />
    <glyph glyph-name="otilde" unicode="&#xf5;" horiz-adv-x="562" 
d="M522 267l1 -1q0 -118 -63.5 -201.5t-180.5 -83.5q-118 0 -179 83t-61 203q0 118 63.5 200t180.5 82q61 0 108 -23t75 -63.5t42 -90t14 -105.5zM423 265q0 50 -11 92.5t-44 76t-85 33.5q-51 0 -85 -32.5t-46.5 -75.5t-12.5 -92q0 -50 11 -93t44 -77t85 -34
q75 0 109.5 61.5t34.5 140.5zM465 732q-17 -126 -101 -126q-26 0 -72 25t-67 25q-37 0 -49 -57h-62q19 126 101 126q27 0 73 -25t66 -25q38 0 48 57h63z" />
    <glyph glyph-name="odieresis" unicode="&#xf6;" horiz-adv-x="562" 
d="M522 267l1 -1q0 -118 -63.5 -201.5t-180.5 -83.5q-118 0 -179 83t-61 203q0 118 63.5 200t180.5 82q61 0 108 -23t75 -63.5t42 -90t14 -105.5zM423 265q0 50 -11 92.5t-44 76t-85 33.5q-51 0 -85 -32.5t-46.5 -75.5t-12.5 -92q0 -50 11 -93t44 -77t85 -34
q75 0 109.5 61.5t34.5 140.5zM448 689q0 -26 -15.5 -42t-41.5 -16t-41.5 16t-15.5 42q0 25 15.5 41.5t41.5 16.5t41.5 -16.5t15.5 -41.5zM236 689q0 -26 -15.5 -42t-41.5 -16t-42 16t-16 42q0 25 16 41.5t42 16.5t41.5 -16.5t15.5 -41.5z" />
    <glyph glyph-name="divide" unicode="&#xf7;" 
d="M344 522q0 -28 -17 -44t-46 -16t-46.5 16.5t-17.5 43.5q0 26 16.5 43.5t46.5 17.5t47 -16.5t17 -44.5zM525 280h-490v93h490v-93zM344 131q0 -28 -17 -44.5t-46 -16.5t-46.5 16.5t-17.5 44.5q0 25 17 42.5t46 17.5q30 0 47 -16.5t17 -43.5z" />
    <glyph glyph-name="oslash" unicode="&#xf8;" horiz-adv-x="562" 
d="M558 530l-76 -85q46 -72 46 -179q0 -118 -63.5 -201.5t-180.5 -83.5q-100 0 -162 62l-69 -77l-38 36l74 84q-45 74 -45 181q0 118 63 200t181 82q101 0 162 -61l70 78zM389 417q-37 50 -101 50q-51 0 -85 -32.5t-46.5 -75.5t-12.5 -92q0 -56 17 -97zM428 265q0 51 -18 96
l-227 -247q37 -51 101 -51q75 0 109.5 61.5t34.5 140.5z" />
    <glyph glyph-name="ugrave" unicode="&#xf9;" horiz-adv-x="576" 
d="M493 0h-89v74q-63 -90 -159 -90q-78 0 -122 48t-44 131v368h96v-350q0 -50 26.5 -79t75.5 -29q61 0 98 48q14 18 18 30.5t4 37.5v342h96v-531zM338 585h-77l-154 155h115z" />
    <glyph glyph-name="uacute" unicode="&#xfa;" horiz-adv-x="576" 
d="M493 0h-89v74q-63 -90 -159 -90q-78 0 -122 48t-44 131v368h96v-350q0 -50 26.5 -79t75.5 -29q61 0 98 48q14 18 18 30.5t4 37.5v342h96v-531zM469 740l-153 -155h-78l116 155h115z" />
    <glyph glyph-name="ucircumflex" unicode="&#xfb;" horiz-adv-x="576" 
d="M493 0h-89v74q-63 -90 -159 -90q-78 0 -122 48t-44 131v368h96v-350q0 -50 26.5 -79t75.5 -29q61 0 98 48q14 18 18 30.5t4 37.5v342h96v-531zM451 585h-78l-89 95l-88 -95h-77l118 155h95z" />
    <glyph glyph-name="udieresis" unicode="&#xfc;" horiz-adv-x="576" 
d="M493 0h-89v74q-63 -90 -159 -90q-78 0 -122 48t-44 131v368h96v-350q0 -50 26.5 -79t75.5 -29q61 0 98 48q14 18 18 30.5t4 37.5v342h96v-531zM451 689q0 -26 -15.5 -42t-41.5 -16t-41.5 16t-15.5 42q0 25 15.5 41.5t41.5 16.5t41.5 -16.5t15.5 -41.5zM239 689
q0 -26 -15.5 -42t-41.5 -16t-42 16t-16 42q0 25 16 41.5t42 16.5t41.5 -16.5t15.5 -41.5z" />
    <glyph glyph-name="yacute" unicode="&#xfd;" horiz-adv-x="482" 
d="M471 531l-184 -565q-26 -81 -76 -128t-145 -54l-8 82q54 1 92 30t53 82l-189 553h105l95 -315q30 -98 37 -128h2q5 20 37 130l90 313h91zM446 740l-153 -155h-78l116 155h115z" />
    <glyph glyph-name="thorn" unicode="&#xfe;" horiz-adv-x="568" 
d="M529 274q0 -73 -24 -137.5t-78.5 -108.5t-129.5 -44q-82 0 -119 41v-225h-96v940h96v-282q62 89 155 89q91 0 143.5 -79.5t52.5 -193.5zM429 257q0 84 -33 142t-98 58q-54 0 -95 -47q-16 -18 -20.5 -30.5t-4.5 -34.5v-212q0 -32 26.5 -52.5t75.5 -20.5q73 0 111 57
t38 140z" />
    <glyph glyph-name="ydieresis" unicode="&#xff;" horiz-adv-x="482" 
d="M471 531l-184 -565q-26 -81 -76 -128t-145 -54l-8 82q54 1 92 30t53 82l-189 553h105l95 -315q30 -98 37 -128h2q5 20 37 130l90 313h91zM414 689q0 -26 -15.5 -42t-41.5 -16t-41.5 16t-15.5 42q0 25 15.5 41.5t41.5 16.5t41.5 -16.5t15.5 -41.5zM202 689
q0 -26 -15.5 -42t-41.5 -16t-42 16t-16 42q0 25 16 41.5t42 16.5t41.5 -16.5t15.5 -41.5z" />
    <glyph glyph-name="dotlessi" unicode="&#x131;" horiz-adv-x="283" 
d="M187 0h-96v531h96v-531z" />
    <glyph glyph-name="Lslash" unicode="&#x141;" horiz-adv-x="517" 
d="M497 0h-417v271l-80 -45v88l80 45v347h107v-281l153 91v-88l-153 -91v-242h310v-95z" />
    <glyph glyph-name="lslash" unicode="&#x142;" horiz-adv-x="254" 
d="M254 385l-79 -46v-339h-96v278l-79 -46v80l79 46v382h96v-321l79 47v-81z" />
    <glyph glyph-name="OE" unicode="&#x152;" horiz-adv-x="1011" 
d="M948 0h-486q-60 0 -111.5 7t-110.5 29.5t-100 59t-68.5 102t-27.5 152.5q0 356 422 356h467v-95h-290v-191h280v-92h-280v-233h305v-95zM537 93v521h-91q-138 0 -215.5 -60t-77.5 -201q0 -61 17.5 -108t46 -75.5t68 -46t79 -24t84.5 -6.5h89z" />
    <glyph glyph-name="oe" unicode="&#x153;" horiz-adv-x="910" 
d="M863 306q0 -31 -2 -46h-343v-14q0 -80 46.5 -129.5t127.5 -49.5q71 0 125 45l41 -76q-72 -52 -183 -52q-142 0 -203 109q-61 -112 -193 -112q-118 0 -179 83t-61 203q0 118 63.5 200t180.5 82q133 0 190 -108q57 106 180 106q104 0 157 -70.5t53 -170.5zM772 333
q2 55 -31 97t-93 42q-61 0 -94 -42t-36 -97h254zM423 265q0 50 -11 92.5t-44 76t-85 33.5q-51 0 -85 -32.5t-46.5 -75.5t-12.5 -92q0 -50 11 -93t44 -77t85 -34q75 0 109.5 61.5t34.5 140.5z" />
    <glyph glyph-name="Scaron" unicode="&#x160;" horiz-adv-x="534" 
d="M484 200q0 -108 -71.5 -162.5t-177.5 -54.5q-119 0 -194 58l48 88q68 -54 153 -54q58 0 98 28t40 82q0 44 -27.5 69t-78.5 46l-61 26q-74 31 -114 76t-40 120q0 88 64.5 145.5t165.5 57.5q113 0 185 -52l-50 -87q-59 49 -135 49q-63 0 -94.5 -30.5t-31.5 -71.5
q0 -40 26 -63.5t72 -43.5l61 -26q78 -33 120 -78t42 -122zM452 900l-121 -155h-95l-121 155h80l89 -99l88 99h80z" />
    <glyph glyph-name="scaron" unicode="&#x161;" horiz-adv-x="428" 
d="M383 149q0 -74 -56 -120t-143 -46q-96 0 -153 48l45 75q50 -44 116 -44q39 0 69.5 18.5t30.5 56.5q0 23 -14.5 40.5t-29 24.5t-41.5 18l-49 19q-110 42 -110 142q0 71 53 118.5t133 47.5q87 0 141 -44l-45 -75q-45 39 -100 39q-46 0 -69 -21t-23 -51q0 -47 71 -73l49 -19
q62 -24 93.5 -58.5t31.5 -95.5zM391 740l-121 -155h-95l-121 155h80l89 -99l88 99h80z" />
    <glyph glyph-name="Ydieresis" unicode="&#x178;" horiz-adv-x="568" 
d="M556 706l-213 -439v-267h-106v266l-225 440h124l157 -337l149 337h114zM463 842q0 -26 -15.5 -42t-41.5 -16t-41.5 16t-15.5 42q0 25 15.5 41.5t41.5 16.5t41.5 -16.5t15.5 -41.5zM251 842q0 -26 -15.5 -42t-41.5 -16t-42 16t-16 42q0 25 16 41.5t42 16.5t41.5 -16.5
t15.5 -41.5z" />
    <glyph glyph-name="Zcaron" unicode="&#x17d;" horiz-adv-x="575" 
d="M535 0h-494v87l365 524h-354v95h481v-85l-365 -526h367v-95zM458 899l-121 -155h-95l-121 155h80l89 -99l88 99h80z" />
    <glyph glyph-name="zcaron" unicode="&#x17e;" horiz-adv-x="459" 
d="M426 0h-390v84l268 366h-255v81h364v-89l-264 -362h277v-80zM400 740l-121 -155h-95l-121 155h80l89 -99l88 99h80z" />
    <glyph glyph-name="florin" unicode="&#x192;" 
d="M535 697l-35 -84q-43 29 -89 29q-53 0 -80 -29.5t-27 -79.5v-151h159v-73h-159v-276q0 -106 -48.5 -171t-167.5 -78l-10 78q65 7 95.5 46.5t30.5 119.5v281h-118v73h118v152q0 84 58 138t140 54q77 0 133 -29z" />
    <glyph glyph-name="circumflex" unicode="&#x2c6;" horiz-adv-x="539" 
d="M436 585h-78l-89 95l-88 -95h-77l118 155h95z" />
    <glyph glyph-name="caron" unicode="&#x2c7;" horiz-adv-x="539" 
d="M438 740l-121 -155h-95l-121 155h80l89 -99l88 99h80z" />
    <glyph glyph-name="breve" unicode="&#x2d8;" horiz-adv-x="539" 
d="M436 732q-14 -138 -166 -138t-167 138h59q14 -75 108 -75t107 75h59z" />
    <glyph glyph-name="dotaccent" unicode="&#x2d9;" horiz-adv-x="539" 
d="M329 687q0 -26 -16 -42.5t-43 -16.5q-26 0 -42.5 16.5t-16.5 42.5t16.5 43t42.5 17q27 0 43 -16.5t16 -43.5z" />
    <glyph glyph-name="ring" unicode="&#x2da;" horiz-adv-x="539" 
d="M374 680q0 -45 -27 -74t-78 -29q-50 0 -76.5 28t-26.5 72q0 45 27 73.5t77 28.5q51 0 77.5 -27.5t26.5 -71.5zM320 679q0 23 -12 39.5t-38 16.5t-38 -17t-12 -41q0 -23 12 -39.5t37 -16.5q26 0 38.5 17.5t12.5 40.5z" />
    <glyph glyph-name="ogonek" unicode="&#x2db;" horiz-adv-x="539" 
d="M360 -186q-38 -22 -88 -22q-38 0 -65 21t-27 57q0 62 64 94h54q-55 -26 -55 -67q0 -20 15.5 -33t37.5 -13q30 0 49 15z" />
    <glyph glyph-name="tilde" unicode="&#x2dc;" horiz-adv-x="539" 
d="M445 732q-17 -126 -101 -126q-26 0 -72.5 25t-66.5 25q-37 0 -49 -57h-62q19 126 101 126q27 0 73 -25t66 -25q38 0 48 57h63z" />
    <glyph glyph-name="hungarumlaut" unicode="&#x2dd;" horiz-adv-x="539" 
d="M480 740l-153 -155h-80l117 155h116zM293 740l-153 -155h-80l116 155h117z" />
    <glyph glyph-name="Delta" unicode="&#x394;" horiz-adv-x="611" 
d="M616 0h-620l250 708h115zM473 95l-136 380q-25 69 -34 125h-3q-8 -49 -35 -126l-134 -379h342z" />
    <glyph glyph-name="Omega" unicode="&#x3a9;" horiz-adv-x="725" 
d="M686 0h-274v175q82 16 120.5 77t38.5 147q0 100 -51 166.5t-158 66.5t-157.5 -66.5t-50.5 -165.5q0 -85 39 -147t120 -78v-175h-274v88h205v25q-200 55 -200 288q0 85 28 150t75 102t102 55.5t114 18.5q146 0 232 -84.5t86 -242.5q0 -223 -200 -287v-25h205v-88z" />
    <glyph glyph-name="pi" unicode="&#x3c0;" horiz-adv-x="581" 
d="M555 457h-72v-457h-97v457h-190v-457h-97v457h-72v74h528v-74z" />
    <glyph glyph-name="endash" unicode="&#x2013;" horiz-adv-x="840" 
d="M651 230h-462v98h462v-98z" />
    <glyph glyph-name="emdash" unicode="&#x2014;" horiz-adv-x="1120" 
d="M1120 239h-1120v81h1120v-81z" />
    <glyph glyph-name="quoteleft" unicode="&#x2018;" horiz-adv-x="280" 
d="M244 740q-83 -102 -83 -185q0 -36 17 -78h-96q-12 34 -12 61q0 114 90 202h84z" />
    <glyph glyph-name="quoteright" unicode="&#x2019;" horiz-adv-x="280" 
d="M210 679q0 -112 -90 -202h-84q82 103 82 185q0 39 -16 78h95q13 -30 13 -61z" />
    <glyph glyph-name="quotesinglbase" unicode="&#x201a;" horiz-adv-x="280" 
d="M210 62q0 -112 -90 -202h-84q82 103 82 185q0 39 -16 78h95q13 -30 13 -61z" />
    <glyph glyph-name="quotedblleft" unicode="&#x201c;" horiz-adv-x="479" 
d="M443 740q-82 -103 -82 -185q0 -35 16 -78h-95q-13 30 -13 61q0 113 91 202h83zM244 740q-83 -102 -83 -185q0 -36 17 -78h-96q-12 34 -12 61q0 114 90 202h84z" />
    <glyph glyph-name="quotedblright" unicode="&#x201d;" horiz-adv-x="479" 
d="M409 680q0 -115 -90 -203h-84q83 102 83 185q0 36 -17 78h96q12 -28 12 -60zM210 680q0 -113 -90 -203h-84q82 103 82 185q0 39 -16 78h95q13 -30 13 -60z" />
    <glyph glyph-name="quotedblbase" unicode="&#x201e;" horiz-adv-x="479" 
d="M210 62q0 -112 -90 -202h-84q82 103 82 185q0 39 -16 78h95q13 -30 13 -61zM409 62q0 -114 -90 -202h-84q83 102 83 185q0 36 -17 78h96q12 -28 12 -61z" />
    <glyph glyph-name="dagger" unicode="&#x2020;" 
d="M527 383h-199l-6 -523h-84q-6 338 -6 523h-199v82h198l6 241h84q7 -160 7 -241h199v-82z" />
    <glyph glyph-name="daggerdbl" unicode="&#x2021;" 
d="M527 396h-199v-226h199v-82h-199l-7 -228h-83q-6 146 -7 228h-198v82h198v226h-197v82h197l7 228h83q6 -146 7 -228h199v-82z" />
    <glyph glyph-name="bullet" unicode="&#x2022;" horiz-adv-x="299" 
d="M276 327q0 -56 -35.5 -93.5t-90.5 -37.5t-91 37.5t-36 93.5q0 55 35.5 91t90.5 36q56 0 91.5 -36t35.5 -91z" />
    <glyph glyph-name="ellipsis" unicode="&#x2026;" horiz-adv-x="1000" 
d="M862 57q0 -28 -16.5 -45.5t-44.5 -17.5t-45.5 18t-17.5 45q0 28 17.5 45.5t45.5 17.5t44.5 -17.5t16.5 -45.5zM562 57q0 -28 -16.5 -45.5t-44.5 -17.5t-45.5 18t-17.5 45q0 28 17.5 45.5t45.5 17.5t44.5 -17.5t16.5 -45.5zM262 57q0 -28 -16.5 -45.5t-44.5 -17.5
t-45.5 18t-17.5 45q0 28 17.5 45.5t45.5 17.5t44.5 -17.5t16.5 -45.5z" />
    <glyph glyph-name="perthousand" unicode="&#x2030;" horiz-adv-x="1158" 
d="M1130 209q0 -39 -6.5 -75t-22.5 -71.5t-47.5 -57t-75.5 -21.5q-43 0 -74.5 21.5t-47 57.5t-22 72t-6.5 74q0 39 7 75t22.5 72t47 57.5t74.5 21.5q45 0 77 -21t47 -57t21 -71.5t6 -76.5zM782 209q0 -39 -6.5 -75t-22.5 -71.5t-47 -57t-75 -21.5q-43 0 -74.5 21.5t-47 57.5
t-22.5 72t-7 74t7 74.5t23 72.5t47.5 57.5t74.5 21.5q45 0 77 -21t46.5 -57t20.5 -71.5t6 -76.5zM650 706l-408 -706h-81l407 706h82zM330 496q0 -38 -7 -74.5t-22.5 -72t-47 -57.5t-74.5 -22q-45 0 -77 21t-47 57t-21 71.5t-6 75.5q0 39 6.5 75t22.5 72t47.5 57.5
t75.5 21.5q43 0 74.5 -21.5t47 -57.5t22 -72t6.5 -74zM1057 209q0 78 -16.5 122t-61.5 44q-79 0 -79 -166t79 -166q78 0 78 166zM710 209q0 77 -17 121.5t-62 44.5q-78 0 -78 -166t79 -166q78 0 78 166zM258 496q0 165 -79 165q-78 0 -78 -166q0 -77 16.5 -121t62.5 -44
q78 0 78 166z" />
    <glyph glyph-name="guilsinglleft" unicode="&#x2039;" horiz-adv-x="289" 
d="M262 65h-85l-150 204l150 204h85l-130 -204z" />
    <glyph glyph-name="guilsinglright" unicode="&#x203a;" horiz-adv-x="289" 
d="M262 269l-151 -204h-84l130 204l-130 204h84z" />
    <glyph glyph-name="fraction" unicode="&#x2044;" horiz-adv-x="280" 
d="M389 706l-416 -706h-82l415 706h83z" />
    <glyph glyph-name="trademark" unicode="&#x2122;" horiz-adv-x="937" 
d="M869 270h-78l-10 279q-1 36 1 71h-2q-7 -35 -20 -74l-96 -276h-77l-98 283q-9 28 -17 66h-2q0 -4 1.5 -27t0.5 -38l-6 -284h-70l11 436h106l95 -266q10 -29 21 -84h2q9 46 23 85l93 265h106zM362 639h-140v-369h-80v369h-138v67h358v-67z" />
    <glyph glyph-name="partialdiff" unicode="&#x2202;" horiz-adv-x="552" 
d="M520 305q0 -63 -13 -118t-41 -102.5t-77.5 -75.5t-115.5 -28q-80 0 -136 40.5t-80 102t-24 136.5q0 114 60 195.5t171 81.5q92 0 137 -61q-13 81 -67 134t-132 53q-54 0 -92 -18l-18 89q42 15 102 15q70 0 126 -25t92.5 -66.5t61.5 -99.5t35.5 -120.5t10.5 -132.5z
M417 261q0 193 -140 193q-51 0 -85 -31.5t-46.5 -73t-12.5 -88.5q0 -35 6.5 -67.5t21.5 -63t44 -49t68 -18.5q75 0 109.5 58.5t34.5 139.5z" />
    <glyph glyph-name="product" unicode="&#x220f;" horiz-adv-x="847" 
d="M801 354q0 -162 -107 -269t-270 -107q-164 0 -271 106.5t-107 269.5q0 156 107 266t271 110q163 0 270 -110.5t107 -265.5zM740 354q0 138 -92 229t-224 91q-133 0 -225 -90.5t-92 -229.5q0 -140 91 -231t226 -91q134 0 225 91t91 231zM624 435q0 -156 -194 -156h-54
v-168h-82v470h138q192 0 192 -146zM542 433q0 51 -32 69t-83 18h-51v-181h46q120 0 120 94z" />
    <glyph glyph-name="summation" unicode="&#x2211;" horiz-adv-x="566" 
d="M530 -136h-494v87l264 343l-250 327v85h481v-95h-354l245 -317l-259 -335h367v-95z" />
    <glyph glyph-name="minus" unicode="&#x2212;" 
d="M525 280h-490v93h490v-93z" />
    <glyph glyph-name="radical" unicode="&#x221a;" 
d="M596 750l-232 -750h-93l-150 444h-109v93h184l122 -391l184 604h94z" />
    <glyph glyph-name="infinity" unicode="&#x221e;" horiz-adv-x="752" 
d="M717 307q0 -89 -44.5 -143t-118.5 -54q-99 0 -172 131q-37 -61 -80 -95.5t-103 -34.5q-80 0 -121.5 55.5t-41.5 140.5q0 80 43 137t120 57q58 0 100 -34.5t78 -95.5q38 64 75 97t95 33q81 0 125.5 -55t44.5 -139zM633 306q0 43 -23.5 71t-66.5 28q-19 0 -35.5 -8
t-30 -24.5t-22.5 -30.5t-22 -38q25 -47 50 -73t60 -26q44 0 67 28.5t23 72.5zM326 305q-28 49 -54.5 75t-67.5 26q-39 0 -61.5 -30t-22.5 -70t22 -70.5t62 -30.5t68 26t54 74z" />
    <glyph glyph-name="integral" unicode="&#x222b;" horiz-adv-x="419" 
d="M487 722l-29 -83q-40 29 -89 29q-53 0 -81.5 -32t-28.5 -82v-573q0 -83 -54.5 -139.5t-142.5 -56.5q-78 0 -131 29l30 82q41 -28 88 -28q53 0 82 32t29 81v573q0 84 54.5 140.5t142.5 56.5q75 0 130 -29z" />
    <glyph glyph-name="approxequal" unicode="&#x2248;" 
d="M518 420q-53 -58 -124 -58q-41 0 -116.5 34.5t-111.5 34.5q-66 0 -124 -68v101q53 58 124 58q41 0 116 -34t111 -34q67 0 125 67v-101zM518 168q-53 -58 -124 -58q-41 0 -116.5 34.5t-111.5 34.5q-66 0 -124 -68v101q53 58 124 58q41 0 116 -34t111 -34q67 0 125 67v-101
z" />
    <glyph glyph-name="notequal" unicode="&#x2260;" 
d="M526 127h-264l-51 -127h-83l51 127h-145v98h183l62 156h-245v97h283l54 135h82l-53 -135h126v-97h-164l-62 -156h226v-98z" />
    <glyph glyph-name="lessequal" unicode="&#x2264;" 
d="M525 128l-490 175v95l490 174v-96l-379 -126l379 -125v-97zM525 0h-490v93h490v-93z" />
    <glyph glyph-name="greaterequal" unicode="&#x2265;" 
d="M525 303l-490 -175v97l380 125l-380 126v96l490 -174v-95zM525 0h-490v93h490v-93z" />
    <glyph glyph-name="lozenge" unicode="&#x25ca;" 
d="M566 327l-285 -323l-287 323l286 324zM462 327l-181 199l-183 -199l182 -198z" />
    <glyph glyph-name="apple" unicode="&#xf8ff;" horiz-adv-x="696" 
d="M696 327l-334 -337l-59 63l160 156q66 64 82 75q-4 0 -17.5 -1t-38.5 -1.5t-56 -0.5h-433v93h433q42 0 76.5 -1t35.5 -1q-10 6 -82 75l-160 155l59 64z" />
    <glyph glyph-name="fi" unicode="&#xfb01;" horiz-adv-x="595" 
d="M511 687q0 -26 -16 -42.5t-42 -16.5q-27 0 -43 16.5t-16 42.5q0 27 16 43.5t43 16.5q26 0 42 -17t16 -43zM500 0h-96v531h96v-531zM364 737l-20 -85q-28 10 -46 10q-50 0 -77 -28.5t-27 -79.5v-33h132v-77h-131v-444h-96v444h-92v77h91v38q0 84 55 136.5t137 52.5
q39 0 74 -11z" />
    <glyph glyph-name="fl" unicode="&#xfb02;" horiz-adv-x="581" 
d="M500 0h-96v740h96v-740zM364 737l-20 -85q-28 10 -46 10q-50 0 -77 -28.5t-27 -79.5v-33h132v-77h-131v-444h-96v444h-92v77h91v38q0 84 55 136.5t137 52.5q39 0 74 -11z" />
    </font>
</defs>
</svg>
